<?xml version="1.0" encoding="utf-8" ?>
<svg baseProfile="full" height="200mm" version="1.1" viewBox="0,0,200,200" width="200mm" xmlns="http://www.w3.org/2000/svg" xmlns:ev="http://www.w3.org/2001/xml-events" xmlns:xlink="http://www.w3.org/1999/xlink"><defs /><rect fill="#1e272e" height="200" width="200" x="0" y="0" /><text alignment-baseline="middle" fill="#e1ed5e" style="dominant-baseline: central; font-size:9.0px; font-family:Arial;" text-anchor="middle" x="100.0" y="100.0">2021</text><line stroke="#e1ed5e" stroke-width="0.3" x1="100.0" x2="100.0" y1="15.0" y2="10.0" /><path d="M 100.0 14.0 a86.0,86.0 0 0,1 42.46469731375804,11.215312516191453" fill="none" id="id61" stroke="none" /><text fill="#e1ed5e" style="font-size:6.75px; font-family:Arial;" text-anchor="middle"><textPath startOffset="22.20632615414155" xlink:href="#id61">January</textPath></text><line stroke="#e1ed5e" stroke-width="0.3" x1="143.23703022742887" x2="145.7803849466894" y1="26.81831364943548" y2="22.513508569990506" /><path d="M 143.74570117128098 25.957352633546492 a86.0,86.0 0 0,1 28.547481713284135,27.462654790039103" fill="none" id="id62" stroke="none" /><text fill="#e1ed5e" style="font-size:6.75px; font-family:Arial;" text-anchor="middle"><textPath startOffset="19.985693538727396" xlink:href="#id62">February</textPath></text><line stroke="#e1ed5e" stroke-width="0.3" x1="172.23445277983987" x2="176.4835382374775" y1="55.19839476539836" y2="52.563006222186495" /><path d="M 173.08426987136738 54.67131705675599 a86.0,86.0 0 0,1 12.851231095245387,41.99856678651699" fill="none" id="id63" stroke="none" /><text fill="#e1ed5e" style="font-size:6.75px; font-family:Arial;" text-anchor="middle"><textPath startOffset="22.20632615414155" xlink:href="#id63">March</textPath></text><line stroke="#e1ed5e" stroke-width="0.3" x1="184.98032266829074" x2="189.97916517819016" y1="98.17113171792111" y2="98.06355123074" /><path d="M 185.9800911702706 98.14961562048488 a86.0,86.0 0 0,1 -9.607161424134198,41.387399972396054" fill="none" id="id64" stroke="none" /><text fill="#e1ed5e" style="font-size:6.75px; font-family:Arial;" text-anchor="middle"><textPath startOffset="21.466115282336823" xlink:href="#id64">April</textPath></text><line stroke="#e1ed5e" stroke-width="0.3" x1="174.80103733775053" x2="179.2010983576182" y1="140.37084112569926" y2="142.7455964860345" /><path d="M 175.68104954172406 140.8457921977663 a86.0,86.0 0 0,1 -30.038265399797805,32.042727171017184" fill="none" id="id65" stroke="none" /><text fill="#e1ed5e" style="font-size:6.75px; font-family:Arial;" text-anchor="middle"><textPath startOffset="22.206326154141568" xlink:href="#id65">May</textPath></text><line stroke="#e1ed5e" stroke-width="0.3" x1="143.8653032363475" x2="146.44561519142675" y1="172.8068346515853" y2="177.08958963109032" /><path d="M 144.38136562736335 173.6633856474863 a86.0,86.0 0 0,1 -40.68145358897372,12.25698825130547" fill="none" id="id66" stroke="none" /><text fill="#e1ed5e" style="font-size:6.75px; font-family:Arial;" text-anchor="middle"><textPath startOffset="21.466115282336833" xlink:href="#id66">June</textPath></text><line stroke="#e1ed5e" stroke-width="0.3" x1="102.19456741930631" x2="102.32365962044197" y1="184.97166512339345" y2="189.96999836594603" /><path d="M 102.22038585953345 185.97133177190398 a86.0,86.0 0 0,1 -42.740103519485714,-10.115201625700543" fill="none" id="id67" stroke="none" /><text fill="#e1ed5e" style="font-size:6.75px; font-family:Arial;" text-anchor="middle"><textPath startOffset="22.20632615414155" xlink:href="#id67">July</textPath></text><path d="M 99.09653310690486 120.98055641714683 l -0.8984374526517316 20.863761369341532 a41.88309671320696,41.88309671320696 0 0,0 -0.7200141735837856,-0.03721650847932517 l 1.257439694649006 -20.845205054100003" fill="#ff0000" stroke="none" /><path d="M 98.01472825383883 120.90594882070398 l -5.37944872879209 56.64840595509997 a77.90325444014172,77.90325444014172 0 0,0 -1.3338795673816914,-0.13826207106360208 l 6.353760892779374 -56.547414515580606" fill="#42ffd6" stroke="none" /><path d="M 96.93821686468263 120.77559828337769 l -7.5390505244166235 51.155904324730265 a72.70845027740305,72.70845027740305 0 0,0 -1.236611945318652,-0.1931333536496352 l 8.418498333343793 -51.01855266373352" fill="#38ff84" stroke="none" /><path d="M 96.22490169976321 120.6578951692458 l -9.449472064014655 51.70890604117171 a73.56523077342396,73.56523077342396 0 0,0 -1.2437161602891647,-0.23836116218882167 l 10.338155838875513 -51.53858768063442" fill="#3aff92" stroke="none" /><path d="M 95.51606077576429 120.51570834832081 l -11.228245663490931 51.373446823365875 a73.58616300123926,73.58616300123926 0 0,0 -1.2351257019728246,-0.2811105885449613 l 12.110891514856618 -51.17255950124323" fill="#3aff92" stroke="none" /><path d="M 94.46302465271185 120.25689768951611 l -13.865585238607233 50.72692651978219 a73.58778877412954,73.58778877412954 0 0,0 -1.2189951486962267,-0.34450020523498504 l 14.736711555408075 -50.48073752120869" fill="#3aff92" stroke="none" /><path d="M 93.76903079525671 120.05430185196036 l -16.158840619706016 52.00704043258922 a75.45952978799974,75.45952978799974 0 0,0 -1.2371002578801271,-0.3960804362346803 l 17.051662222677084 -51.721187149694835" fill="#3dffb0" stroke="none" /><path d="M 93.08242187328487 119.8279376855182 l -20.752734380145377 59.483813056554574 a84.0,84.0 0 0,0 -1.3611217574810934,-0.4880498358401688 l 21.773575698256195 -59.117775679674445" fill="#4dd2ff" stroke="none" /><path d="M 92.06813273071674 119.44442032107085 l -20.010173902340284 49.05354802917495 a73.97789759751205,73.97789759751205 0 0,0 -1.174940010244975,-0.4911250195728558 l 20.85158537208272 -48.70183796658212" fill="#3bff99" stroke="none" /><path d="M 91.07499286063937 119.00905698771935 l -23.322803320049 49.67441375693305 a75.87714038468721,75.87714038468721 0 0,0 -1.1774951828446096,-0.5652692440298411 l 24.174411170893855 -49.265590236403646" fill="#3effb7" stroke="none" /><line stroke="#e1ed5e" stroke-width="0.3" x1="58.666819895761336" x2="56.23545636021788" y1="174.27360380694188" y2="178.64263932499728" /><path d="M 58.180547188652646 175.14741091055294 a86.0,86.0 0 0,1 -31.652253787137756,-30.449443065178592" fill="none" id="id68" stroke="none" /><text fill="#e1ed5e" style="font-size:6.75px; font-family:Arial;" text-anchor="middle"><textPath startOffset="22.20632615414155" xlink:href="#id68">August</textPath></text><path d="M 87.65650970185807 116.9893568818739 l -32.31680155564272 44.480261388641345 a75.9806267333199,75.9806267333199 0 0,0 -1.0514815278914185,-0.7778608969609961 l 33.077668053952706 -43.91739054294058" fill="#3effb8" stroke="none" /><path d="M 87.07902340077011 116.55440617244103 l -38.70864674948198 49.59367086189576 a83.91177570800423,83.91177570800423 0 0,0 -1.1309809231872476,-0.8985196463018222 l 39.556585165386586 -48.92001730158881" fill="#4dd3ff" stroke="none" /><path d="M 86.51685102203217 116.09983520530335 l -35.23804130751026 42.076718052706255 a75.88323748902515,75.88323748902515 0 0,0 -0.9941951610634747,-0.8472746848617028 l 35.95710194515079 -41.4639189776216" fill="#3effb7" stroke="none" /><path d="M 84.9287848128048 114.62390073753433 l -37.74882419448911 36.62843713145727 a73.59863244191396,73.59863244191396 0 0,0 -0.8743988867488406,-0.9168037369554772 l 38.37372963261691 -35.97322627791929" fill="#3aff93" stroke="none" /><line stroke="#e1ed5e" stroke-width="0.3" x1="26.63291911575756" x2="22.317208475507996" y1="142.92168965132927" y2="145.44649492493687" /><path d="M 25.769776987707644 143.4266507060508 a86.0,86.0 0 0,1 -11.730757126820373,-40.83630448921669" fill="none" id="id69" stroke="none" /><text fill="#e1ed5e" style="font-size:6.75px; font-family:Arial;" text-anchor="middle"><textPath startOffset="21.46611528233685" xlink:href="#id69">September</textPath></text><line stroke="#e1ed5e" stroke-width="0.3" x1="15.007084014347285" x2="10.007500721073583" y1="101.09737516637583" y2="101.16192664675087" /><path d="M 14.007167355692545 101.11028546245083 a86.0,86.0 0 0,1 10.666146001902534,-42.60595125391555" fill="none" id="id70" stroke="none" /><text fill="#e1ed5e" style="font-size:6.75px; font-family:Arial;" text-anchor="middle"><textPath startOffset="22.20632615414155" xlink:href="#id70">October</textPath></text><line stroke="#e1ed5e" stroke-width="0.3" x1="26.266209847984243" x2="21.928928074336255" y1="57.71137044288968" y2="55.22380399835378" /><path d="M 25.398753493254645 57.2138571539825 a86.0,86.0 0 0,1 29.58750427330803,-30.4925239686951" fill="none" id="id71" stroke="none" /><text fill="#e1ed5e" style="font-size:6.75px; font-family:Arial;" text-anchor="middle"><textPath startOffset="21.46611528233685" xlink:href="#id71">November</textPath></text><line stroke="#e1ed5e" stroke-width="0.3" x1="56.76296977257108" x2="54.21961505331056" y1="26.818313649435495" y2="22.513508569990535" /><path d="M 56.25429882871898 25.957352633546506 a86.0,86.0 0 0,1 42.26535254187918,-11.944610805530505" fill="none" id="id72" stroke="none" /><text fill="#e1ed5e" style="font-size:6.75px; font-family:Arial;" text-anchor="middle"><textPath startOffset="22.20632615414155" xlink:href="#id72">December</textPath></text></svg>