<?xml version="1.0" encoding="utf-8" ?>
<svg baseProfile="full" height="200mm" version="1.1" viewBox="0,0,200,200" width="200mm" xmlns="http://www.w3.org/2000/svg" xmlns:ev="http://www.w3.org/2001/xml-events" xmlns:xlink="http://www.w3.org/1999/xlink"><defs /><rect fill="#1a1a1a" height="200" width="200" x="0" y="0" /><text alignment-baseline="middle" fill="#e1ed5e" style="dominant-baseline: central; font-size:9.0px; font-family:Arial;" text-anchor="middle" x="100.0" y="100.0">2024</text><line stroke="#e1ed5e" stroke-width="0.3" x1="100.0" x2="100.0" y1="15.0" y2="10.0" /><path d="M 100.0 14.0 a86.0,86.0 0 0,1 42.35913384403234,11.155469271406648" fill="none" id="id1" stroke="none" /><text fill="#e1ed5e" style="font-size:6.75px; font-family:Arial;" text-anchor="middle"><textPath startOffset="22.145653131862478" xlink:href="#id1">January</textPath></text><line stroke="#e1ed5e" stroke-width="0.3" x1="143.13028292997686" x2="145.6673583964461" y1="26.7553504044142" y2="22.446841604673864" /><path d="M 143.63769802327073 25.89364864446614 a86.0,86.0 0 0,1 29.32050498858742,28.57503671076992" fill="none" id="id2" stroke="none" /><text fill="#e1ed5e" style="font-size:6.75px; font-family:Arial;" text-anchor="middle"><textPath startOffset="20.669276256404974" xlink:href="#id2">February</textPath></text><path d="M 117.01052211995028 87.68569379921539 l 18.041071068388934 -13.060344165785493 a43.272243601025636,43.272243601025636 0 0,0 0.43042468290418,0.6054462200645367 l -18.262610849823076 12.748720719011452" fill="#ff990e" stroke="none" /><path d="M 117.42321728460499 88.27688183743584 l 18.55919524233743 -12.487454829612023 a43.36918094532746,43.36918094532746 0 0,0 0.4103045884695982,0.621253442300423 l -18.770824269727754 12.167021508972544" fill="#ff9b0e" stroke="none" /><line stroke="#e1ed5e" stroke-width="0.3" x1="172.87174338648825" x2="177.1583165268699" y1="56.24261187166439" y2="53.66864786411523" /><path d="M 173.72905801456457 55.72781907015455 a86.0,86.0 0 0,1 12.242430191666344,42.057860355516425" fill="none" id="id3" stroke="none" /><text fill="#e1ed5e" style="font-size:6.75px; font-family:Arial;" text-anchor="middle"><textPath startOffset="22.145653131862474" xlink:href="#id3">March</textPath></text><path d="M 118.00360718960297 89.18935116829356 l 19.169922425631103 -11.510987619982737 a43.360428479617966,43.360428479617966 0 0,0 0.37770296709333673,0.6414222118801963 l -19.36469910285421 11.180214239808985" fill="#ff9b0e" stroke="none" /><path d="M 118.36410011445183 89.81374322990088 l 11.942645434943968 -6.62438410575081 a34.656838754459685,34.656838754459685 0 0,0 0.2841112361529323,0.5227326744059617 l -12.054602020712238 6.418396597870246" fill="#ff0300" stroke="none" /><path d="M 119.58574465831526 92.42381321644754 l 18.764162449156885 -7.258381135453953 a41.119092651654626,41.119092651654626 0 0,0 0.24900413784197992,0.6605130590970656 l -18.885997270813306 6.9351997961627285" fill="#ff750a" stroke="none" /><path d="M 119.83427380445688 93.10060997987247 l 21.006118713560817 -7.307018509615867 a43.24071812932485,43.24071812932485 0 0,0 0.23785396788653115,0.7031729921761523 l -21.128458103019714 6.945343842965554" fill="#ff990e" stroke="none" /><path d="M 120.05942366710727 93.78553927170692 l 21.32545066628815 -6.606679128878008 a43.32539037132928,43.32539037132928 0 0,0 0.21399375840922302,0.7123156240463115 l -21.435720744701 6.239625901240973" fill="#ff9a0e" stroke="none" /><path d="M 120.51834098615036 95.52812308129327 l 21.94014308260385 -4.781752068086052 a43.455178274192676,43.455178274192676 0 0,0 0.1525944915463909,0.7302198818772622 l -22.018995284974608 4.4044157349233855" fill="#ff9c0e" stroke="none" /><path d="M 120.65975698304385 96.23510406497455 l 22.170355819269847 -4.040177363680646 a43.53547670414429,43.53547670414429 0 0,0 0.12767334658987176,0.736385935258823 l -22.236443983351954 3.658998395501231" fill="#ff9d0e" stroke="none" /><path d="M 120.7213421655516 96.59031103205396 l 13.298129208699764 -2.188202100759896 a34.476960669418155,34.476960669418155 0 0,0 0.09108239683557318,0.5848143257872207 l -13.333733097673603 1.9595995930412338" fill="#ff0000" stroke="none" /><path d="M 120.82617615685814 97.30363454192243 l 22.218294755247115 -2.876603081824325 a43.40373779353353,43.40373779353353 0 0,0 0.08932471409376708,0.7397367714982801 l -22.264401555600546 2.4947726334026314" fill="#ff9b0e" stroke="none" /><line stroke="#e1ed5e" stroke-width="0.3" x1="184.99686870605535" x2="189.99668451229388" y1="99.2704041080226" y2="99.22748670261217" /><path d="M 185.99683186730306 99.26182062694052 a86.0,86.0 0 0,1 -10.086455211305974,41.156179273409016" fill="none" id="id4" stroke="none" /><text fill="#e1ed5e" style="font-size:6.75px; font-family:Arial;" text-anchor="middle"><textPath startOffset="21.40746469413373" xlink:href="#id4">April</textPath></text><path d="M 120.9064616781168 101.97986365728391 l 22.320125031433474 2.1137390466232477 a43.419988273325274,43.419988273325274 0 0,0 -0.07664167065553729,0.7414386398734574 l -22.280550968296268 -2.4965822087796363" fill="#ff9c0e" stroke="none" /><path d="M 120.77682067341334 103.0534771498775 l 22.055956589486833 3.241466080075841 a43.29287606895104,43.29287606895104 0 0,0 -0.11437257930230046,0.7343540044732116 l -21.997062518046263 -3.6196082664805034" fill="#ff990e" stroke="none" /><path d="M 120.592083275326 104.11899336999214 l 28.088289788362676 5.618444616107061 a49.64470183366029,49.64470183366029 0 0,0 -0.17432923612647525,0.8342285027590381 l -27.987702841411835 -6.099789570151508" fill="#fffe18" stroke="none" /><path d="M 120.43855184770803 104.8234425847677 l 30.551861070316033 7.210156024189872 a52.39112238759637,52.39112238759637 0 0,0 -0.21408627622224338,0.8735450641076696 l -30.423587267577496 -7.733556912905641" fill="#d7ff1c" stroke="none" /><path d="M 120.26092885502905 105.52220625578681 l 30.342208766883722 8.269903925223286 a52.449021348614,52.449021348614 0 0,0 -0.24421639984190655,0.8666378479529048 l -30.195773874967237 -8.789549697079199" fill="#d6ff1c" stroke="none" /><path d="M 120.05942366710727 106.21446072829308 l 29.98852787290959 9.29052259218741 a52.39467493095318,52.39467493095318 0 0,0 -0.273538337038733,0.8568549448077692 l -29.824624820093604 -9.803946570686561" fill="#d7ff1c" stroke="none" /><path d="M 119.94978838288452 106.5578916946017 l 29.492937553819967 9.694914378116179 a52.045526736593274,52.045526736593274 0 0,0 -0.2862865276200847,0.8463552491265168 l -29.322165604627518 -10.199771301716858" fill="#dcff1b" stroke="none" /><path d="M 119.71291397450082 107.23885506374661 l 29.44970125076064 10.814338220145947 a52.372516872236474,52.372516872236474 0 0,0 -0.31715129321709445,0.8412814850986676 l -29.259719273729104 -11.318287985438772" fill="#d7ff1c" stroke="none" /><path d="M 119.4528033332814 107.91128576633889 l 29.15478286665525 11.85699638051926 a52.47363542982382,52.47363542982382 0 0,0 -0.3465112893967224,0.8315009515464633 l -28.946945732722043 -12.355729841507" fill="#d6ff1c" stroke="none" /><path d="M 119.16976305983485 108.57439118712176 l 40.35476335127056 18.05017235515584 a65.2076424070305,65.2076424070305 0 0,0 -0.46581711291575334,1.017894458325204 l -40.03896177349975 -18.740255795695735" fill="#30ff34" stroke="none" /><path d="M 118.8641267826498 109.22738970284198 l 40.19580084930713 19.661780432663267 a65.74693303120807,65.74693303120807 0 0,0 -0.5046236367634542,1.0095853075000085 l -39.85235729933195 -20.34889759632702" fill="#31ff3c" stroke="none" /><path d="M 118.5362547648365 109.86951160357373 l 27.830008679434737 14.817912090326264 a52.529032681229694,52.529032681229694 0 0,0 -0.4306246312515015,0.7923008192397164 l -27.5715386985679 -15.293467743040585" fill="#d5ff1c" stroke="none" /><line stroke="#e1ed5e" stroke-width="0.3" x1="174.33088141563837" x2="178.70328620479359" y1="141.23008692659167" y2="143.65538615756765" /><path d="M 175.20536237346943 141.71514677278685 a86.0,86.0 0 0,1 -30.301960400862466,31.63118572779886" fill="none" id="id5" stroke="none" /><text fill="#e1ed5e" style="font-size:6.75px; font-family:Arial;" text-anchor="middle"><textPath startOffset="22.145653131862474" xlink:href="#id5">May</textPath></text><path d="M 118.36410011445183 110.18625677009912 l 39.25927939937348 21.77646048969049 a65.89437882872556,65.89437882872556 0 0,0 -0.5571734815534846,0.984472154573163 l -38.87967255279862 -22.44718941436277" fill="#31ff3e" stroke="none" /><path d="M 118.00360718960297 110.81064883170644 l 42.20706667883363 25.34413083311395 a70.23171178536762,70.23171178536762 0 0,0 -0.6295170509114806,1.0282687926208602 l -41.76578166346674 -26.064936741859366" fill="#38ff7d" stroke="none" /><path d="M 117.62189284568427 111.42229804090321 l 19.02426994577189 12.33130193414056 a43.67121201789923,43.67121201789923 0 0,0 -0.41316202622228726,0.6255799672526241 l -18.809783480628877 -12.656061779732246" fill="#ffa00e" stroke="none" /><path d="M 117.423217284605 111.72311816256415 l 37.33627556856314 25.121512467566394 a66.00097623374162,66.00097623374162 0 0,0 -0.6405560160306984,0.9345903706372599 l -36.899529815717116 -25.758737573273695" fill="#31ff40" stroke="none" /><path d="M 117.01052211995028 112.31430620078461 l 36.279174918556336 26.263324870843736 a65.78773008361426,65.78773008361426 0 0,0 -0.6700886952880559,0.9091040094184181 l -35.82298420368445 -26.882235189531034" fill="#31ff3c" stroke="none" /><path d="M 116.57777611688842 112.89097897827484 l 17.7132685136579 13.773944733967166 a43.438391987201896,43.438391987201896 0 0,0 -0.46279173745179375,0.5847222420570629 l -17.474210345564547 -14.075986919938911" fill="#ff9c0e" stroke="none" /><path d="M 115.89218393027572 113.72728997021213 l 34.21290490443579 29.55229239775948 a66.20907926470787,66.20907926470787 0 0,0 -0.7503346824042619,0.8537431315381802 l -33.700559158072934 -30.135247807108954" fill="#31ff43" stroke="none" /><path d="M 115.41159269507618 114.26474011684316 l 33.03811231503489 30.579583528418596 a66.0180829679851,66.0180829679851 0 0,0 -0.7769516225453853,0.8250956987162181 l -32.50830485875324 -31.142220687079305" fill="#31ff40" stroke="none" /><path d="M 114.91283532996326 114.78537596483092 l 22.64163037698623 22.448113331464167 a52.88355717717715,52.88355717717715 0 0,0 -0.6446960918869744,0.6391859019896707 l -22.252942364969293 -22.833479243682497" fill="#d0ff1d" stroke="none" /><path d="M 114.13192950727249 115.5334660781643 l 39.92904237844592 43.88901211260585 a80.33442347811423,80.33442347811423 0 0,0 -1.0280318637404966,0.9192724317158019 l -39.16974548788205 -44.56798007420504" fill="#47fdff" stroke="none" /><path d="M 113.59037401385872 116.0094264158162 l 20.01860134281382 23.58186204577759 a51.93296974537998,51.93296974537998 0 0,0 -0.6845894727959511,0.5711088864747129 l -19.610837535855975 -23.922033116164172" fill="#deff1b" stroke="none" /><path d="M 113.03279911837588 116.46651593811092 l 19.96194236051107 25.22126206729791 a53.16506183845582,53.16506183845582 0 0,0 -0.7204879948608346,0.5602558226364655 l -19.526044421015005 -25.56021894155517" fill="#ccff1d" stroke="none" /><path d="M 112.45986205192187 116.90419585922612 l 35.90255920189647 48.708716843514885 a81.51060116861666,81.51060116861666 0 0,0 -1.1334592093842815,0.8205370577124917 l -35.061118982138225 -49.317854672600454" fill="#49efff" stroke="none" /><path d="M 111.8722381534696 117.32195027204791 l 27.001795405683545 39.396426455324466 a68.76165169443141,68.76165169443141 0 0,0 -0.9793745361135912,0.6589668959940489 l -26.32152458147295 -39.85414302537564" fill="#35ff68" stroke="none" /><path d="M 111.27062007382361 117.71928675628689 l 30.203231022509836 47.48449579071561 a77.27621615476284,77.27621615476284 0 0,0 -1.1254208995964856,0.7023458771180537 l -29.383645994123636 -47.995977464675214" fill="#43ffdb" stroke="none" /><line stroke="#e1ed5e" stroke-width="0.3" x1="143.1302829299769" x2="145.6673583964461" y1="173.24464959558577" y2="177.55315839532614" /><path d="M 143.63769802327073 174.10635135553383 a86.0,86.0 0 0,1 -40.685524379131806,11.842963189579606" fill="none" id="id6" stroke="none" /><text fill="#e1ed5e" style="font-size:6.75px; font-family:Arial;" text-anchor="middle"><textPath startOffset="21.407464694133747" xlink:href="#id6">June</textPath></text><path d="M 110.34350942703117 118.27599006163325 l 31.03052828109348 54.82797018489977 a84.0,84.0 0 0,0 -1.2610232473756222,0.6994683382674252 l -30.084760845561767 -55.352571438600336" fill="#4dd2ff" stroke="none" /><path d="M 109.71004243097381 118.62028667847754 l 16.354377462462043 31.361675189768977 a56.36976580206967,56.36976580206967 0 0,0 -0.8618474913059622,0.4400654699673242 l -15.813602749442499 -31.63779861140914" fill="#9eff22" stroke="none" /><path d="M 109.3889696526874 118.78422872680471 l 21.334156670818604 42.682604526625376 a68.71740741104168,68.71740741104168 0 0,0 -1.0596870517785029,0.5183460386202083 l -20.598309369778033 -43.04254431534281" fill="#35ff67" stroke="none" /><path d="M 108.73861861582097 119.09545874513695 l 21.587616385212034 47.17283774615578 a72.8777582613225,72.8777582613225 0 0,0 -1.1420520701775638,0.5108253646745401 l -20.774650912178846 -47.536466861740166" fill="#3cffa2" stroke="none" /><line stroke="#e1ed5e" stroke-width="0.3" x1="101.45913802915013" x2="101.54496967792366" y1="184.9874750549273" y2="189.98673829345242" /><path d="M 101.47630435890484 185.9873277026323 a86.0,86.0 0 0,1 -42.54439059252881,-10.42667462771756" fill="none" id="id7" stroke="none" /><text fill="#e1ed5e" style="font-size:6.75px; font-family:Arial;" text-anchor="middle"><textPath startOffset="22.145653131862474" xlink:href="#id7">July</textPath></text><line stroke="#e1ed5e" stroke-width="0.3" x1="58.13341422392154" x2="55.670673884152215" y1="173.97424548756322" y2="178.32567169271397" /><path d="M 57.64086615596767 174.84453072859336 a86.0,86.0 0 0,1 -31.369924170532244,-30.572349798747886" fill="none" id="id8" stroke="none" /><text fill="#e1ed5e" style="font-size:6.75px; font-family:Arial;" text-anchor="middle"><textPath startOffset="22.145653131862474" xlink:href="#id8">August</textPath></text><line stroke="#e1ed5e" stroke-width="0.3" x1="26.387840678322732" x2="22.057713659400548" y1="142.50000000000003" y2="145.00000000000006" /><path d="M 25.521815274538298 143.00000000000003 a86.0,86.0 0 0,1 -11.493303480769221,-40.785679425670985" fill="none" id="id9" stroke="none" /><text fill="#e1ed5e" style="font-size:6.75px; font-family:Arial;" text-anchor="middle"><textPath startOffset="21.40746469413373" xlink:href="#id9">September</textPath></text><line stroke="#e1ed5e" stroke-width="0.3" x1="15.003131293944662" x2="10.003315487706104" y1="100.72959589197737" y2="100.7725132973878" /><path d="M 14.003168132696942 100.73817937305945 a86.0,86.0 0 0,1 10.791469493833604,-42.453326145846276" fill="none" id="id10" stroke="none" /><text fill="#e1ed5e" style="font-size:6.75px; font-family:Arial;" text-anchor="middle"><textPath startOffset="22.145653131862435" xlink:href="#id10">October</textPath></text><line stroke="#e1ed5e" stroke-width="0.3" x1="26.387840678322718" x2="22.05771365940052" y1="57.5" y2="55.0" /><path d="M 25.521815274538284 57.0 a86.0,86.0 0 0,1 29.574782752854787,-30.346332500585742" fill="none" id="id11" stroke="none" /><text fill="#e1ed5e" style="font-size:6.75px; font-family:Arial;" text-anchor="middle"><textPath startOffset="21.40746469413373" xlink:href="#id11">November</textPath></text><line stroke="#e1ed5e" stroke-width="0.3" x1="56.869717070023135" x2="54.33264160355391" y1="26.7553504044142" y2="22.446841604673864" /><path d="M 56.362301976729285 25.89364864446614 a86.0,86.0 0 0,1 42.16139366436587,-11.88097634709845" fill="none" id="id12" stroke="none" /><text fill="#e1ed5e" style="font-size:6.75px; font-family:Arial;" text-anchor="middle"><textPath startOffset="22.145653131862474" xlink:href="#id12">December</textPath></text></svg>