<?xml version="1.0" encoding="utf-8" ?>
<svg baseProfile="full" height="200mm" version="1.1" viewBox="0,0,200,200" width="200mm" xmlns="http://www.w3.org/2000/svg" xmlns:ev="http://www.w3.org/2001/xml-events" xmlns:xlink="http://www.w3.org/1999/xlink"><defs /><rect fill="#1e272e" height="200" width="200" x="0" y="0" /><text alignment-baseline="middle" fill="#e1ed5e" style="dominant-baseline: central; font-size:9.0px; font-family:Arial;" text-anchor="middle" x="100.0" y="100.0">2024</text><line stroke="#e1ed5e" stroke-width="0.3" x1="100.0" x2="100.0" y1="15.0" y2="10.0" /><path d="M 100.0 14.0 a86.0,86.0 0 0,1 42.35913384403234,11.155469271406648" fill="none" id="id97" stroke="none" /><text fill="#e1ed5e" style="font-size:6.75px; font-family:Arial;" text-anchor="middle"><textPath startOffset="22.145653131862478" xlink:href="#id97">January</textPath></text><line stroke="#e1ed5e" stroke-width="0.3" x1="143.13028292997686" x2="145.6673583964461" y1="26.7553504044142" y2="22.446841604673864" /><path d="M 143.63769802327073 25.89364864446614 a86.0,86.0 0 0,1 29.32050498858742,28.57503671076992" fill="none" id="id98" stroke="none" /><text fill="#e1ed5e" style="font-size:6.75px; font-family:Arial;" text-anchor="middle"><textPath startOffset="20.669276256404974" xlink:href="#id98">February</textPath></text><path d="M 117.01052211995028 87.68569379921539 l 11.746752058331332 -8.503742606544503 a35.50171790645066,35.50171790645066 0 0,0 0.3531320403288608,0.49672443865953303 l -11.890999197190153 8.300840941175466" fill="#ff5d08" stroke="none" /><path d="M 117.42321728460499 88.27688183743584 l 12.028216496971973 -8.09312086140943 a35.497468654058515,35.497468654058515 0 0,0 0.33583235722567023,0.5084929923414008 l -12.165373293118368 7.885447990728972" fill="#ff5d08" stroke="none" /><line stroke="#e1ed5e" stroke-width="0.3" x1="172.87174338648825" x2="177.1583165268699" y1="56.24261187166439" y2="53.66864786411523" /><path d="M 173.72905801456457 55.72781907015455 a86.0,86.0 0 0,1 12.242430191666344,42.057860355516425" fill="none" id="id99" stroke="none" /><text fill="#e1ed5e" style="font-size:6.75px; font-family:Arial;" text-anchor="middle"><textPath startOffset="22.145653131862474" xlink:href="#id99">March</textPath></text><path d="M 118.00360718960297 89.18935116829356 l 12.441333526379093 -7.470663314043701 a35.51198092151457,35.51198092151457 0 0,0 0.3093369007578635,0.5253216849928578 l -12.567744137266725 7.255990460757287" fill="#ff5d08" stroke="none" /><path d="M 118.36410011445183 89.81374322990088 l 7.731773769417583 -4.288684575490051 a29.84155761218011,29.84155761218011 0 0,0 0.2446363294123137,0.45010329215463063 l -7.804255448445236 4.1553264498608184" fill="#ff0200" stroke="none" /><path d="M 119.58574465831526 92.42381321644754 l 12.182743731414154 -4.712546990454115 a34.06244019938652,34.06244019938652 0 0,0 0.2062712965603568,0.5471591206306035 l -12.26184571178895 4.502719589629352" fill="#ff4606" stroke="none" /><path d="M 119.83427380445688 93.10060997987247 l 13.643059367149377 -4.745764254830769 a35.44490731219802,35.44490731219802 0 0,0 0.19497159645595963,0.5763988807397222 l -13.7225163851777 4.510863699616885" fill="#ff5c08" stroke="none" /><path d="M 120.05942366710727 93.78553927170692 l 13.845658827840973 -4.289420497362187 a35.49487483837517,35.49487483837517 0 0,0 0.17531709710699647,0.5835735974735592 l -13.917252244951596 4.051109296297904" fill="#ff5d08" stroke="none" /><path d="M 120.51834098615036 95.52812308129327 l 14.21488802571635 -3.09806868435946 a35.548576258749954,35.548576258749954 0 0,0 0.12483016144070418,0.5973575115209098 l -14.26597589798142 2.853594721553146" fill="#ff5e08" stroke="none" /><path d="M 120.65975698304385 96.23510406497455 l 14.3166152441141 -2.6089642090236875 a35.55239383372945,35.55239383372945 0 0,0 0.10426193632562815,0.601355142194841 l -14.359291997931962 2.3628160339082536" fill="#ff5e08" stroke="none" /><path d="M 120.7213421655516 96.59031103205396 l 8.63557061435669 -1.420979858372375 a29.751700611506358,29.751700611506358 0 0,0 0.07859904553692551,0.504662255497911 l -8.658691152031881 1.2725294209430227" fill="#ff0000" stroke="none" /><path d="M 120.82617615685814 97.30363454192243 l 14.40454712205674 -1.8649570140303626 a35.52477340462612,35.52477340462612 0 0,0 0.07310983774505363,0.6054543346370791 l -14.434439046061458 1.6174090024698706" fill="#ff5e08" stroke="none" /><line stroke="#e1ed5e" stroke-width="0.3" x1="184.99686870605535" x2="189.99668451229388" y1="99.2704041080226" y2="99.22748670261217" /><path d="M 185.99683186730306 99.26182062694052 a86.0,86.0 0 0,1 -10.086455211305974,41.156179273409016" fill="none" id="id100" stroke="none" /><text fill="#e1ed5e" style="font-size:6.75px; font-family:Arial;" text-anchor="middle"><textPath startOffset="21.40746469413373" xlink:href="#id100">April</textPath></text><path d="M 120.9064616781168 101.97986365728391 l 14.44955354424071 1.3683877437837715 a35.51420279055026,35.51420279055026 0 0,0 -0.0626869776365065,0.6064396435913443 l -14.423934174122536 -1.6162319096580469" fill="#ff5d08" stroke="none" /><path d="M 120.77682067341334 103.0534771498775 l 14.340600619547333 2.107574445369309 a35.49464370628458,35.49464370628458 0 0,0 -0.09377094618611914,0.602076741252906 l -14.302308181222946 -2.3534393685536656" fill="#ff5d08" stroke="none" /><path d="M 120.592083275326 104.11899336999214 l 18.261456618922804 3.6528027657051703 a39.623205038068576,39.623205038068576 0 0,0 -0.13913837352298816,0.6658274859656903 l -18.19606053457545 -3.96574670295627" fill="#ff9d0e" stroke="none" /><path d="M 120.43855184770803 104.8234425847677 l 19.81417724259267 4.6760918780443905 a41.35847378986917,41.35847378986917 0 0,0 -0.16900347311522004,0.689591842886727 l -19.730986242961155 -5.015539545539217" fill="#ffb610" stroke="none" /><path d="M 120.26092885502905 105.52220625578681 l 19.67573214299954 5.362708289668971 a41.393456685004374,41.393456685004374 0 0,0 -0.1927387910907284,0.6839619748552648 l -19.580774859834232 -5.699678188427245" fill="#ffb711" stroke="none" /><path d="M 120.05942366710727 106.21446072829308 l 19.47172437687723 6.032389985893376 a41.384743784285874,41.384743784285874 0 0,0 -0.2160584832036032,0.6768001213462788 l -19.36530117789637 -6.365759140931037" fill="#ffb711" stroke="none" /><path d="M 119.94978838288452 106.5578916946017 l 19.188665401023087 6.307695452640458 a41.198809415301724,41.198809415301724 0 0,0 -0.2266220524442409,0.669967829951604 l -19.07755792700648 -6.636164957066224" fill="#ffb410" stroke="none" /><path d="M 119.71291397450082 107.23885506374661 l 19.13298602838709 7.025897489094588 a41.38220767948657,41.38220767948657 0 0,0 -0.25059747870710053,0.6647395850420827 l -19.00955786586555 -7.353305354330828" fill="#ffb711" stroke="none" /><path d="M 119.4528033332814 107.91128576633889 l 18.914931290120602 7.692537888911401 a41.41934780746733,41.41934780746733 0 0,0 -0.27351395605000484,0.6563339252604674 l -18.78009148953411 -8.016104323613146" fill="#ffb711" stroke="none" /><path d="M 119.16976305983485 108.57439118712176 l 26.388394728220145 11.803193315102485 a49.907831962394496,49.907831962394496 0 0,0 -0.356521434274407,0.7790636757643249 l -26.181888829090685 -12.254445973081499" fill="#d0ff1d" stroke="none" /><path d="M 118.8641267826498 109.22738970284198 l 26.106674030623942 12.770082490496964 a50.06257792686932,50.06257792686932 0 0,0 -0.38424241214748617,0.7687422180826372 l -25.883611705264723 -13.216356564743348" fill="#ceff1d" stroke="none" /><path d="M 118.5362547648365 109.86951160357373 l 18.058738094929506 9.615260873081645 a41.4590142293971,41.4590142293971 0 0,0 -0.3398743857121212,0.6253305888604346 l -17.891018359602047 -9.923846295416684" fill="#ffb811" stroke="none" /><line stroke="#e1ed5e" stroke-width="0.3" x1="174.33088141563837" x2="178.70328620479359" y1="141.23008692659167" y2="143.65538615756765" /><path d="M 175.20536237346943 141.71514677278685 a86.0,86.0 0 0,1 -30.301960400862466,31.63118572779886" fill="none" id="id101" stroke="none" /><text fill="#e1ed5e" style="font-size:6.75px; font-family:Arial;" text-anchor="middle"><textPath startOffset="22.145653131862474" xlink:href="#id101">May</textPath></text><path d="M 118.36410011445183 110.18625677009912 l 25.534863354429433 14.163758261855715 a50.20002216830784,50.20002216830784 0 0,0 -0.42446900058469134,0.7499960521990762 l -25.28796098882336 -14.600011084153913" fill="#ccff1d" stroke="none" /><path d="M 118.00360718960297 110.81064883170644 l 27.32456810170387 16.407618046463405 a52.87227559970082,52.87227559970082 0 0,0 -0.473916955238406,0.7741077301400585 l -27.03888318201006 -16.874262892728023" fill="#a9ff21" stroke="none" /><path d="M 117.62189284568427 111.42229804090321 l 12.251761930696015 7.941444061888889 a35.60041794588643,35.60041794588643 0 0,0 -0.33680633381217223,0.5099677170315157 l -12.113631157963114 -8.150591657259467" fill="#ff5f08" stroke="none" /><path d="M 117.423217284605 111.72311816256415 l 24.119117399612026 16.228418588468468 a50.07049008907171,50.07049008907171 0 0,0 -0.4859466553733143,0.7090106928814124 l -23.836981007423393 -16.64006401641992" fill="#ceff1d" stroke="none" /><path d="M 117.01052211995028 112.31430620078461 l 23.51601993007442 17.023784925629094 a50.03123226020097,50.03123226020097 0 0,0 -0.5095990256280619,0.6913689495911244 l -23.22031888486253 -17.4249601844891" fill="#ceff1d" stroke="none" /><path d="M 116.57777611688842 112.89097897827484 l 11.495513938847292 8.938981168842108 a35.56201308388185,35.56201308388185 0 0,0 -0.3788769581346844,0.4786986596694564 l -11.340370550071047 -9.134999772426246" fill="#ff5e08" stroke="none" /><path d="M 115.89218393027572 113.72728997021213 l 21.965248460428707 18.97305846741663 a50.02497351482643,50.02497351482643 0 0,0 -0.5669233439187371,0.6450546966966779 l -21.636314052551384 -19.347325441924603" fill="#ceff1d" stroke="none" /><path d="M 115.41159269507618 114.26474011684316 l 21.238983454315502 19.658486005702517 a49.94046458177701,49.94046458177701 0 0,0 -0.5877378324708151,0.6241572106584218 l -20.898389788108425 -20.020184676305437" fill="#cfff1d" stroke="none" /><path d="M 114.91283532996326 114.78537596483092 l 14.455079711797136 14.331532764336313 a41.355396356977536,41.355396356977536 0 0,0 -0.5041578863625792,0.49984887049131793 l -14.206929905304595 -14.577561645056292" fill="#ffb610" stroke="none" /><path d="M 114.13192950727249 115.5334660781643 l 25.521882267285033 28.053019387462953 a58.92543172092482,58.92543172092482 0 0,0 -0.7540630625211242,0.6742878402899762 l -25.03655417794053 -28.487002757636315" fill="#5fff29" stroke="none" /><path d="M 113.59037401385872 116.0094264158162 l 12.744204157686378 15.012640452909007 a40.69248874523255,40.69248874523255 0 0,0 -0.5364154900718379,0.4474968800959432 l -12.484614333452644 -15.22919951691682" fill="#ffad10" stroke="none" /><path d="M 113.03279911837588 116.46651593811092 l 12.723014197244632 16.07511281013654 a41.500837595618,41.500837595618 0 0,0 -0.5624155080486299,0.43733770079840545 l -12.445188744560772 -16.291151562555743" fill="#ffb911" stroke="none" /><path d="M 112.45986205192187 116.90419585922612 l 22.952691373713836 31.139734040456876 a59.684739593376435,59.684739593376435 0 0,0 -0.8299560643881249,0.6008241862304069 l -22.414754298951745 -31.52915899806036" fill="#56ff2a" stroke="none" /><path d="M 111.8722381534696 117.32195027204791 l 17.292409268659732 25.230141912886566 a51.58737450745363,51.58737450745363 0 0,0 -0.7347607239290194,0.49437980638868584 l -16.85675225663371 -25.523271393332372" fill="#baff1f" stroke="none" /><path d="M 111.27062007382361 117.71928675628689 l 19.34221326262487 30.409171905076274 a57.03940828938985,57.03940828938985 0 0,0 -0.8306998632145096,0.5184181529420958 l -18.817349270620646 -30.73672585485992" fill="#75ff27" stroke="none" /><line stroke="#e1ed5e" stroke-width="0.3" x1="143.1302829299769" x2="145.6673583964461" y1="173.24464959558577" y2="177.55315839532614" /><path d="M 143.63769802327073 174.10635135553383 a86.0,86.0 0 0,1 -40.685524379131806,11.842963189579606" fill="none" id="id102" stroke="none" /><text fill="#e1ed5e" style="font-size:6.75px; font-family:Arial;" text-anchor="middle"><textPath startOffset="21.407464694133747" xlink:href="#id102">June</textPath></text><path d="M 110.34350942703117 118.27599006163325 l 19.91056052794643 35.180052659819566 a61.42358872842311,61.42358872842311 0 0,0 -0.9221020633783427,0.5114744706939507 l -19.303714276411995 -35.51666004594666" fill="#42ff2d" stroke="none" /><path d="M 109.71004243097381 118.62028667847754 l 10.477747468057558 20.092462312789063 a43.66032289697645,43.66032289697645 0 0,0 -0.6675305320673488,0.3408458460169375 l -10.131289714276626 -20.269366110478835" fill="#ffd814" stroke="none" /><path d="M 109.3889696526874 118.78422872680471 l 13.717379627492567 27.44394816330873 a51.68121240490872,51.68121240490872 0 0,0 -0.7969729020495089,0.3898393832138307 l -13.244246476180988 -27.675381296619783" fill="#b8ff1f" stroke="none" /><path d="M 108.73861861582097 119.09545874513695 l 13.84382324598744 30.251252204795506 a54.2684490474727,54.2684490474727 0 0,0 -0.8504294871112182,0.38038629255847095 l -13.322480356020595 -30.484442248263825" fill="#97ff23" stroke="none" /><path d="M 108.07796709384702 119.3841803445677 l 17.776428485827324 42.65695708441974 a67.21274063950071,67.21274063950071 0 0,0 -1.068828327986915,0.43468317614642826 l -17.04154569664997 -42.95582751714546" fill="#35ff67" stroke="none" /><path d="M 107.407793817531 119.65005319985036 l 9.797488345943998 25.9890018492551 a48.77443059739468,48.77443059739468 0 0,0 -0.7859903064786277,0.28862652763910734 l -9.349908887811242 -26.153359225902932" fill="#dfff1b" stroke="none" /><path d="M 107.06938296918513 119.77432235084164 l 11.615112878083046 32.4895379404097 a55.503346544240195,55.503346544240195 0 0,0 -0.8999318633570796,0.31304301725659606 l -11.055675242680945 -32.68413939023488" fill="#88ff25" stroke="none" /><path d="M 106.38641147887787 120.00534299687104 l 9.694789534480675 30.36879013530757 a52.8787132488159,52.8787132488159 0 0,0 -0.8671085823297665,0.26863245532274677 l -9.172040319279283 -30.53073917843696" fill="#a9ff21" stroke="none" /><path d="M 105.69591212413111 120.21278271476187 l 14.091942842363405 50.00733376745804 a72.95494474640876,72.95494474640876 0 0,0 -1.2083374607896484,0.3293377481762367 l -13.231423980639063 -50.241872009778426" fill="#3dffb0" stroke="none" /><path d="M 104.9986988182912 120.39639698878246 l 8.126119238379575 33.15733953757822 a55.13858490164187,55.13858490164187 0 0,0 -0.9212550728699967,0.2174136887498082 l -7.5557320117697 -33.29194936997425" fill="#8dff24" stroke="none" /><path d="M 104.64783097203107 120.47920084513623 l 6.960285993419989 30.668304345961772 a52.44821890929177,52.44821890929177 0 0,0 -0.879725422916164,0.19173206138808802 l -6.432798153884688 -30.78326786548358" fill="#afff20" stroke="none" /><path d="M 103.94208987418118 120.62667999033965 l 4.909449688920388 25.688315308404178 a47.15324529828054,47.15324529828054 0 0,0 -0.7963627765546217,0.14512382612810543 l -4.46775217881471 -25.76880730846365" fill="#f5ff19" stroke="none" /><path d="M 103.2317021107853 120.74984581791261 l 4.442090411203292 28.52140698057667 a49.865252872147025,49.865252872147025 0 0,0 -0.8469373239056727,0.12447062072560801 l -3.951827981689934 -28.593458674601163" fill="#d0ff1d" stroke="none" /><path d="M 102.51750503828377 120.84855314841334 l 2.8459007787181707 23.568140972089232 a44.739343295941865,44.739343295941865 0 0,0 -0.7632619280425208,0.08552509104919705 l -2.4409029490748506 -23.613521823645403" fill="#ffe715" stroke="none" /><path d="M 102.15924093988457 120.88869738790638 l 4.323987541304111 41.830657056830155 a63.0535460819119,63.0535460819119 0 0,0 -1.0776164389962495,0.10205139716653276 l -3.6052715389228456 -41.89872020950187" fill="#30ff2f" stroke="none" /><path d="M 101.44090949804482 120.95050786540614 l 2.395768595405228 34.833949578260814 a55.916239064130984,55.916239064130984 0 0,0 -0.958179734987563,0.05764171348667359 l -1.7974445082852 -34.869943269572175" fill="#83ff25" stroke="none" /><path d="M 100.72087961077811 120.9876233191556 l 2.162638832334333 62.96286995746683 a84.0,84.0 0 0,0 -1.4415467437170246,0.03712913059981959 l -1.0814787745465644 -62.990716805416696" fill="#4dd2ff" stroke="none" /><line stroke="#e1ed5e" stroke-width="0.3" x1="101.45913802915013" x2="101.54496967792366" y1="184.9874750549273" y2="189.98673829345242" /><path d="M 101.47630435890484 185.9873277026323 a86.0,86.0 0 0,1 -42.54439059252881,-10.42667462771756" fill="none" id="id103" stroke="none" /><text fill="#e1ed5e" style="font-size:6.75px; font-family:Arial;" text-anchor="middle"><textPath startOffset="22.145653131862474" xlink:href="#id103">July</textPath></text><path d="M 100.0 121.0 l 3.3048476227885772e-15 26.98612877679949 a47.98612877679949,47.98612877679949 0 0,0 -0.8237457102343868,-0.007070866202135689 l 0.46325278538553133 -26.98215230879179" fill="#eaff1a" stroke="none" /><path d="M 99.63950707515114 120.99690560180557 l -0.7054814789518814 41.090759336221964 a62.096815046235115,62.096815046235115 0 0,0 -1.065660256251173,-0.02744762804385627 l 1.4107550492737984 -41.07259399082806" fill="#3bff2e" stroke="none" /><path d="M 98.91894614982273 120.97215588758144 l -1.43933706789612 27.922754595196196 a48.959826812385124,48.959826812385124 0 0,0 -0.8389747712882892,-0.05047063888256024 l 1.9184561913168556 -27.893931978488943" fill="#dcff1b" stroke="none" /><path d="M 98.19965949673042 120.92268563240118 l -4.530437391937284 52.650549802458976 a73.8451062773411,73.8451062773411 0 0,0 -1.2620495659436985,-0.11951740604285539 l 5.4335865212659975 -52.56502064091094" fill="#3fffba" stroke="none" /><path d="M 97.48249496171623 120.84855314841334 l -3.7677668901690233 31.202514817635333 a52.42917431755735,52.42917431755735 0 0,0 -0.8925996475466845,-0.11556489484242229 l 4.302844359606501 -31.13323832659251" fill="#afff20" stroke="none" /><path d="M 97.12497278360702 120.80226474461374 l -4.552305624336266 32.93821576918707 a54.25130891491171,54.25130891491171 0 0,0 -0.9214323751367126,-0.13541882787859258 l 5.117063105080664 -32.85521586800959" fill="#98ff23" stroke="none" /><path d="M 96.41257539226777 120.69131181640829 l -3.756863408568462 21.668589793022562 a42.99185772709805,42.99185772709805 0 0,0 -0.7260818417102987,-0.1323162986183458 l 4.128279983829818 -21.60090532047285" fill="#ffce13" stroke="none" /><path d="M 95.70440661134978 120.55596938700252 l -10.705940627172536 51.23180149515437 a73.33846242632129,73.33846242632129 0 0,0 -1.2301220368531274,-0.268099372532559 l 11.5838250806448 -51.04047066448809" fill="#3effb4" stroke="none" /><path d="M 95.00130118170881 120.39639698878247 l -5.2365523136400265 21.366920417510034 a42.999244720255646,42.999244720255646 0 0,0 -0.7154146905030431,-0.1818556167184903 l 5.602572297368448 -21.273879568956282" fill="#ffce13" stroke="none" /><path d="M 94.6519064749342 120.30758222061772 l -12.040788724384857 45.720836009225074 a68.27975717458504,68.27975717458504 0 0,0 -1.130903308808732,-0.30823272571945876 l 12.823873434128284 -45.50740278936147" fill="#37ff75" stroke="none" /><path d="M 93.95794788825049 120.11202640906438 l -9.490338154038872 31.590249149591294 a53.98500204049197,53.98500204049197 0 0,0 -0.8852495779565419,-0.27425258214022374 l 10.031228364867047 -31.42267997964442" fill="#9bff22" stroke="none" /><path d="M 93.27111125876986 119.89276391827306 l -14.868170896734833 43.9551053553627 a67.40165721841782,67.40165721841782 0 0,0 -1.0928512017843495,-0.3801503775439994 l 15.620527870564203 -43.6933965452501" fill="#35ff69" stroke="none" /><path d="M 92.59220618246901 119.65005319985036 l -9.460121622651311 25.09409653414336 a47.81804582702216,47.81804582702216 0 0,0 -0.765607302876209,-0.2961533518706097 l 9.88950118802105 -24.92800329413471" fill="#ecff1a" stroke="none" /><path d="M 92.25597844496254 119.51999308798841 l -11.227786149190566 28.301355628723012 a51.44716591466942,51.44716591466942 0 0,0 -0.8181215019809078,-0.3327228925757918 l 11.711962112361913 -28.104445479567932" fill="#bcff1f" stroke="none" /><path d="M 91.59046798132341 119.24265499422711 l -11.261666488270768 25.76889682000953 a49.122254095526166,49.122254095526166 0 0,0 -0.7697845449694071,-0.34431483570068894 l 11.702364436095811 -25.571778233398987" fill="#daff1b" stroke="none" /><path d="M 90.93487009805054 118.94263497670748 l -18.687865915409226 39.05045226689173 a64.29173309906989,64.29173309906989 0 0,0 -0.9914389914910645,-0.4849624923797154 l 19.35546515616236 -38.72389602441479" fill="#31ff40" stroke="none" /><path d="M 90.28995756902619 118.62028667847754 l -9.907539085910017 18.999012555227768 a42.427127871288235,42.427127871288235 0 0,0 -0.6428946001284546,-0.34230516338604505 l 10.232222501825035 -18.82613692411915" fill="#ffc612" stroke="none" /><path d="M 89.97174638481275 118.45085714620012 l -15.229761077065826 28.021045018061542 a52.892390728334256,52.892390728334256 0 0,0 -0.7940301704488433,-0.4404351505921231 l 15.708535435670772 -27.75547695203627" fill="#a9ff21" stroke="none" /><line stroke="#e1ed5e" stroke-width="0.3" x1="58.13341422392154" x2="55.670673884152215" y1="173.97424548756322" y2="178.32567169271397" /><path d="M 57.64086615596767 174.84453072859336 a86.0,86.0 0 0,1 -31.369924170532244,-30.572349798747886" fill="none" id="id104" stroke="none" /><text fill="#e1ed5e" style="font-size:6.75px; font-family:Arial;" text-anchor="middle"><textPath startOffset="22.145653131862474" xlink:href="#id104">August</textPath></text><path d="M 89.34428304082925 118.09573695890944 l -11.306691235108085 19.201233596021247 a43.282922570772556,43.282922570772556 0 0,0 -0.6370158841469994,-0.38250973547729844 l 11.63463987581251 -19.00430986000803" fill="#ffd313" stroke="none" /><path d="M 88.72937992617639 117.7192867562869 l -23.44974123449536 36.86688811911871 a64.6927660322897,64.6927660322897 0 0,0 -0.9319281530382533,-0.6040645695628791 l 24.079155019790623 -36.45890970785194" fill="#32ff45" stroke="none" /><path d="M 88.1277618465304 117.32195027204791 l -13.918678117633238 20.307767338361955 a45.619809398354874,45.619809398354874 0 0,0 -0.6421637903748044,-0.4482801986348825 l 14.265236999181809 -20.065842323921945" fill="#fff417" stroke="none" /><path d="M 87.54013794807813 116.9041958592261 l -10.064372809789282 13.65425463524342 a37.96261388166612,37.96261388166612 0 0,0 -0.5212574402815751,-0.391161300919787 l 10.297283238981622 -13.479474307059618" fill="#ff830c" stroke="none" /><path d="M 86.68645165197938 116.24036423190432 l -38.603977100381044 47.0905751435899 a81.89161941778877,81.89161941778877 0 0,0 -1.0795096224709646,-0.9005653211554487 l 39.4066610570139 -46.420947638522584" fill="#4ae8ff" stroke="none" /><path d="M 86.13680546590413 115.77377054828092 l -20.758722555158965 23.619615641630812 a52.44536222053161,52.44536222053161 0 0,0 -0.6711382385511028,-0.6001359513561453 l 21.16112582053344 -23.259784160391288" fill="#afff20" stroke="none" /><line stroke="#e1ed5e" stroke-width="0.3" x1="26.387840678322732" x2="22.057713659400548" y1="142.50000000000003" y2="145.00000000000006" /><path d="M 25.521815274538298 143.00000000000003 a86.0,86.0 0 0,1 -11.493303480769221,-40.785679425670985" fill="none" id="id105" stroke="none" /><text fill="#e1ed5e" style="font-size:6.75px; font-family:Arial;" text-anchor="middle"><textPath startOffset="21.40746469413373" xlink:href="#id105">September</textPath></text><line stroke="#e1ed5e" stroke-width="0.3" x1="15.003131293944662" x2="10.003315487706104" y1="100.72959589197737" y2="100.7725132973878" /><path d="M 14.003168132696942 100.73817937305945 a86.0,86.0 0 0,1 10.791469493833604,-42.453326145846276" fill="none" id="id106" stroke="none" /><text fill="#e1ed5e" style="font-size:6.75px; font-family:Arial;" text-anchor="middle"><textPath startOffset="22.145653131862435" xlink:href="#id106">October</textPath></text><line stroke="#e1ed5e" stroke-width="0.3" x1="26.387840678322718" x2="22.05771365940052" y1="57.5" y2="55.0" /><path d="M 25.521815274538284 57.0 a86.0,86.0 0 0,1 29.574782752854787,-30.346332500585742" fill="none" id="id107" stroke="none" /><text fill="#e1ed5e" style="font-size:6.75px; font-family:Arial;" text-anchor="middle"><textPath startOffset="21.40746469413373" xlink:href="#id107">November</textPath></text><line stroke="#e1ed5e" stroke-width="0.3" x1="56.869717070023135" x2="54.33264160355391" y1="26.7553504044142" y2="22.446841604673864" /><path d="M 56.362301976729285 25.89364864446614 a86.0,86.0 0 0,1 42.16139366436587,-11.88097634709845" fill="none" id="id108" stroke="none" /><text fill="#e1ed5e" style="font-size:6.75px; font-family:Arial;" text-anchor="middle"><textPath startOffset="22.145653131862474" xlink:href="#id108">December</textPath></text></svg>