<?xml version="1.0" encoding="utf-8" ?>
<svg baseProfile="full" height="200mm" version="1.1" viewBox="0,0,200,200" width="200mm" xmlns="http://www.w3.org/2000/svg" xmlns:ev="http://www.w3.org/2001/xml-events" xmlns:xlink="http://www.w3.org/1999/xlink"><defs /><rect fill="#1e272e" height="200" width="200" x="0" y="0" /><text alignment-baseline="middle" fill="#e1ed5e" style="dominant-baseline: central; font-size:9.0px; font-family:Arial;" text-anchor="middle" x="100.0" y="100.0">2017</text><line stroke="#e1ed5e" stroke-width="0.3" x1="100.0" x2="100.0" y1="15.0" y2="10.0" /><path d="M 100.0 14.0 a86.0,86.0 0 0,1 42.46469731375804,11.215312516191453" fill="none" id="id13" stroke="none" /><text fill="#e1ed5e" style="font-size:6.75px; font-family:Arial;" text-anchor="middle"><textPath startOffset="22.20632615414155" xlink:href="#id13">January</textPath></text><line stroke="#e1ed5e" stroke-width="0.3" x1="143.23703022742887" x2="145.7803849466894" y1="26.81831364943548" y2="22.513508569990506" /><path d="M 143.74570117128098 25.957352633546492 a86.0,86.0 0 0,1 28.547481713284135,27.462654790039103" fill="none" id="id14" stroke="none" /><text fill="#e1ed5e" style="font-size:6.75px; font-family:Arial;" text-anchor="middle"><textPath startOffset="19.985693538727396" xlink:href="#id14">February</textPath></text><path d="M 111.2981086023043 82.29822771554956 l 31.775637093622727 -49.785774931383216 a80.06195474435263,80.06195474435263 0 0,0 1.1553053460812162,0.7514427340001468 l -32.62790946548822 49.231433273223544" fill="#45ffec" stroke="none" /><path d="M 111.60114157652 82.49532879139004 l 30.68410387311473 -46.29847382578251 a76.54334261720987,76.54334261720987 0 0,0 1.0920012439308457,0.7373241144906234 l -31.476509811452118 45.763437798993216" fill="#3dffae" stroke="none" /><path d="M 111.90073688211348 82.69761687909136 l 26.764940226274582 -38.91332566971095 a68.22932288306743,68.22932288306743 0 0,0 0.9619322796651857,0.673895034947697 l -27.43080364552342 38.446845791999316" fill="#4eff2c" stroke="none" /><path d="M 112.19680574252982 82.90503203632743 l 31.186906337638685 -43.71137623918643 a74.69643879845627,74.69643879845627 0 0,0 1.040253494204815,0.7557884034459716 l -31.934705148197292 43.16806860092378" fill="#39ff8c" stroke="none" /><path d="M 112.48926042617603 83.11751280151076 l 31.858375080356755 -43.06488864076562 a74.56809401502204,74.56809401502204 0 0,0 1.0253249501782913,0.7722534952588384 l -32.59494618429343 42.51011855600094" fill="#39ff8a" stroke="none" /><path d="M 112.77801427241765 83.33499621200491 l 33.28263544643589 -43.40699845566623 a75.69827544987649,75.69827544987649 0 0,0 1.0272163873232822,0.8017586837421631 l -34.0248843889186 42.82766138270084" fill="#3bff9f" stroke="none" /><path d="M 113.06298171725822 83.55741782278167 l 34.06539895285036 -42.87865770660613 a75.76340650961325,75.76340650961325 0 0,0 1.0141350515728187,0.8200266833397342 l -34.798437402987666 42.28592492600226" fill="#3cffa0" stroke="none" /><path d="M 113.34407831869373 83.78471172551755 l 40.032234956081176 -48.64586482344735 a84.0,84.0 0 0,0 1.1085698521635305,0.9283953704247225 l -40.86366234520383 47.94956829562881" fill="#4dd2ff" stroke="none" /><path d="M 114.16331599549186 84.49514656593476 l 36.629271153634456 -40.09876506423404 a75.3103532019735,75.3103532019735 0 0,0 0.949599418881338,0.88254916876689 l -37.31407845631064 39.462311309392504" fill="#3bff98" stroke="none" /><path d="M 114.42810811169701 84.74124197986012 l 36.27254567152224 -38.360815769568795 a73.79441027229554,73.79441027229554 0 0,0 0.9154609716034704,0.8806727293637613 l -36.92748988673813 37.73075995344273" fill="#37ff7b" stroke="none" /><path d="M 114.94478906791727 85.2469230424477 l 37.95334587566439 -37.46647945017196 a74.33098110430717,74.33098110430717 0 0,0 0.8910363932363359,0.9182913275402468 l -38.59264653260383 36.8076239270816" fill="#38ff85" stroke="none" /><path d="M 115.19652480421416 85.50635884689758 l 37.436678694687124 -35.70512297747986 a72.7335550540092,72.7335550540092 0 0,0 0.8562910285053079,0.9134315660440848 l -38.045737045162895 35.05542199455772" fill="#35ff66" stroke="none" /><path d="M 115.9244219780498 86.31012108654704 l 40.73527236757012 -35.01922688228433 a74.71879248729468,74.71879248729468 0 0,0 0.8300524409687795,0.9825202780898273 l -41.33203542202602 34.312847654565395" fill="#39ff8d" stroke="none" /><path d="M 116.38621287248628 86.86637796730983 l 41.625582974305765 -33.363088709341596 a74.34589811952003,74.34589811952003 0 0,0 0.7917693685241683,1.0054666925874376 l -42.1937064234239 32.641629622801126" fill="#39ff85" stroke="none" /><path d="M 116.60985879189232 87.15038557335679 l 42.1021727561966 -32.57081792321573 a74.23017124695255,74.23017124695255 0 0,0 0.7731392577615591,1.017360636849099 l -42.65658795418228 31.841272510485595" fill="#38ff83" stroke="none" /><path d="M 116.82858285166822 87.43820079747576 l 50.45695102561144 -37.66390151458887 a83.9640642279515,83.9640642279515 0 0,0 0.8545837967057348,1.1656513383060254 l -51.097797434830795 36.78978773261135" fill="#4dd3ff" stroke="none" /><path d="M 117.45458315368197 88.32363383020206 l 42.17683387388059 -28.21448967632792 a71.74389365549845,71.74389365549845 0 0,0 0.6778204711321008,1.032367080123733 l -42.65625098037062 27.484304532226513" fill="#33ff52" stroke="none" /><path d="M 117.65298651832404 88.62581576622439 l 45.30771900275596 -29.1927002048381 a74.89808110204154,74.89808110204154 0 0,0 0.6889639220498441,1.089775469639093 l -45.803510521051756 28.4084770874848" fill="#3aff90" stroke="none" /><line stroke="#e1ed5e" stroke-width="0.3" x1="172.23445277983987" x2="176.4835382374775" y1="55.19839476539836" y2="52.563006222186495" /><path d="M 173.08426987136738 54.67131705675599 a86.0,86.0 0 0,1 12.851231095245387,41.99856678651699" fill="none" id="id15" stroke="none" /><text fill="#e1ed5e" style="font-size:6.75px; font-family:Arial;" text-anchor="middle"><textPath startOffset="22.20632615414155" xlink:href="#id15">March</textPath></text><path d="M 118.21658344932153 89.55222093294921 l 45.146066161755556 -25.892677752482022 a73.0441932503088,73.0441932503088 0 0,0 0.6161533658214783,1.096068085556286 l -45.58507716886947 25.111726156990944" fill="#36ff6c" stroke="none" /><line stroke="#e1ed5e" stroke-width="0.3" x1="184.98032266829074" x2="189.97916517819016" y1="98.17113171792111" y2="98.06355123074" /><path d="M 185.9800911702706 98.14961562048488 a86.0,86.0 0 0,1 -9.607161424134198,41.387399972396054" fill="none" id="id16" stroke="none" /><text fill="#e1ed5e" style="font-size:6.75px; font-family:Arial;" text-anchor="middle"><textPath startOffset="21.466115282336823" xlink:href="#id16">April</textPath></text><line stroke="#e1ed5e" stroke-width="0.3" x1="174.80103733775053" x2="179.2010983576182" y1="140.37084112569926" y2="142.7455964860345" /><path d="M 175.68104954172406 140.8457921977663 a86.0,86.0 0 0,1 -30.038265399797805,32.042727171017184" fill="none" id="id17" stroke="none" /><text fill="#e1ed5e" style="font-size:6.75px; font-family:Arial;" text-anchor="middle"><textPath startOffset="22.206326154141568" xlink:href="#id17">May</textPath></text><line stroke="#e1ed5e" stroke-width="0.3" x1="143.8653032363475" x2="146.44561519142675" y1="172.8068346515853" y2="177.08958963109032" /><path d="M 144.38136562736335 173.6633856474863 a86.0,86.0 0 0,1 -40.68145358897372,12.25698825130547" fill="none" id="id18" stroke="none" /><text fill="#e1ed5e" style="font-size:6.75px; font-family:Arial;" text-anchor="middle"><textPath startOffset="21.466115282336833" xlink:href="#id18">June</textPath></text><line stroke="#e1ed5e" stroke-width="0.3" x1="102.19456741930631" x2="102.32365962044197" y1="184.97166512339345" y2="189.96999836594603" /><path d="M 102.22038585953345 185.97133177190398 a86.0,86.0 0 0,1 -42.740103519485714,-10.115201625700543" fill="none" id="id19" stroke="none" /><text fill="#e1ed5e" style="font-size:6.75px; font-family:Arial;" text-anchor="middle"><textPath startOffset="22.20632615414155" xlink:href="#id19">July</textPath></text><line stroke="#e1ed5e" stroke-width="0.3" x1="58.666819895761336" x2="56.23545636021788" y1="174.27360380694188" y2="178.64263932499728" /><path d="M 58.180547188652646 175.14741091055294 a86.0,86.0 0 0,1 -31.652253787137756,-30.449443065178592" fill="none" id="id20" stroke="none" /><text fill="#e1ed5e" style="font-size:6.75px; font-family:Arial;" text-anchor="middle"><textPath startOffset="22.20632615414155" xlink:href="#id20">August</textPath></text><path d="M 82.24976979558568 111.22182372390057 l -43.251850782088454 27.34413242079202 a72.1705400980081,72.1705400980081 0 0,0 -0.654811422044391,-1.055764508831352 l 43.7161268438008 -26.595571580595408" fill="#34ff5b" stroke="none" /><path d="M 82.05923443525364 110.91462005526583 l -42.80469855680611 26.041086131004757 a71.10369632493642,71.10369632493642 0 0,0 -0.6271316365677891,-1.0511086954319562 l 43.24661106907213 -25.30041534168669" fill="#32ff46" stroke="none" /><line stroke="#e1ed5e" stroke-width="0.3" x1="26.63291911575756" x2="22.317208475507996" y1="142.92168965132927" y2="145.44649492493687" /><path d="M 25.769776987707644 143.4266507060508 a86.0,86.0 0 0,1 -11.730757126820373,-40.83630448921669" fill="none" id="id21" stroke="none" /><text fill="#e1ed5e" style="font-size:6.75px; font-family:Arial;" text-anchor="middle"><textPath startOffset="21.46611528233685" xlink:href="#id21">September</textPath></text><path d="M 81.87401531095188 110.60418214915194 l -44.37079871018565 25.958094950309338 a72.40613262665349,72.40613262665349 0 0,0 -0.6200999247252316,-1.0811964871366564 l 44.81105063106327 -25.190478617314373" fill="#34ff60" stroke="none" /><path d="M 81.69416730710424 110.29060199501025 l -23.28271463969733 13.088350240057995 a47.70935628202227,47.70935628202227 0 0,0 -0.3962684393079604,-0.7193423212928741 l 23.504559488456806 -12.6856374003673" fill="#ff0000" stroke="none" /><path d="M 81.35079622478065 109.6543875284942 l -46.25056790211609 23.94316193452133 a73.08061092854962,73.08061092854962 0 0,0 -0.5687109833702796,-1.1221207238145503 l 46.65585755527263 -23.143486999004097" fill="#36ff6d" stroke="none" /><path d="M 81.18737489456691 109.33194174019688 l -46.43914541212206 23.03598764243156 a72.83870130771484,72.83870130771484 0 0,0 -0.547492942563619,-1.1279976237340343 l 46.828791611300396 -22.233201062732242" fill="#35ff68" stroke="none" /><path d="M 81.02952815118164 109.00673069616217 l -46.42922136156884 22.043494572445102 a72.3963836199297,72.3963836199297 0 0,0 -0.5247889159978425,-1.1303486376456597 l 46.80178489440651 -21.241025867520616" fill="#34ff5f" stroke="none" /><path d="M 80.87730276802145 108.67885076344099 l -46.708455218614546 21.198668122785513 a72.29389163525539,72.29389163525539 0 0,0 -0.5045387780294094,-1.137601750108901 l 47.06643508137523 -20.391518036183914" fill="#34ff5d" stroke="none" /><path d="M 80.73074385275274 108.34839909993369 l -47.09027351143291 20.40184602842796 a72.31987120744986,72.31987120744986 0 0,0 -0.4850563285651382,-1.1465298774048793 l 47.434480821190355 -19.588241625356925" fill="#34ff5e" stroke="none" /><path d="M 80.58989483394504 108.01547362559985 l -47.4472367617227 19.59350923746062 a72.33367199569328,72.33367199569328 0 0,0 -0.46533761846579813,-1.1549298069717677 l 47.777476994445884 -18.773880062646047" fill="#34ff5e" stroke="none" /><path d="M 80.45479744820244 107.68017299344265 l -47.70826631386773 18.746684130630225 a72.25930979411008,72.25930979411008 0 0,0 -0.4449305766192004,-1.1615733363520735 l 48.02389117008044 -17.922687227444992" fill="#34ff5d" stroke="none" /><path d="M 80.32549172779594 107.34259656027581 l -48.176498996310904 17.979641011725032 a72.42219896554454,72.42219896554454 0 0,0 -0.4258278350903469,-1.1716953163907173 l 48.47885109240647 -17.147697898328197" fill="#34ff60" stroke="none" /><path d="M 80.20201598880116 107.00284435728193 l -49.0740161630462 17.35821672459976 a73.05349892398296,73.05349892398296 0 0,0 -0.4091314907209233,-1.1891276222406733 l 49.365538484710356 -16.510916399269792" fill="#36ff6c" stroke="none" /><path d="M 80.0844068197444 106.66101706037122 l -48.85844864810875 16.341313916322264 a72.5187979752213,72.5187979752213 0 0,0 -0.38575769908663565,-1.1872401198175448 l 49.132498598211626 -15.497874896526916" fill="#35ff62" stroke="none" /><path d="M 79.97269907076064 106.31721596034903 l -49.07108950176486 15.478504611656538 a72.45440632155122,72.45440632155122 0 0,0 -0.36493982870393826,-1.1926444754816503 l 49.33025610297493 -14.631533163622839" fill="#35ff61" stroke="none" /><path d="M 79.67330655649465 105.27499134158121 l -49.84255339565591 12.934668313620397 a72.49355079407698,72.49355079407698 0 0,0 -0.3030530260141079,-1.2105461946054235 l 50.05781773596508 -12.074794279617583" fill="#35ff61" stroke="none" /><path d="M 79.50377843672027 104.57218783832718 l -50.307472782412965 11.222322832653738 a72.54398459096389,72.54398459096389 0 0,0 -0.26138620613498287,-1.2211093351139262 l 50.49319302727239 -10.354699678123648" fill="#35ff62" stroke="none" /><path d="M 79.4281124754447 104.21870165774334 l -50.421863674198704 10.340072082104637 a72.47117083419221,72.47117083419221 0 0,0 -0.24008686725079423,-1.2241977636544248 l 50.59238047442517 -9.47061059138226" fill="#35ff61" stroke="none" /><path d="M 79.35854240842038 103.8639653848113 l -50.56967433277164 9.466360128691695 a72.44807028653909,72.44807028653909 0 0,0 -0.21890894311149606,-1.2277576076448322 l 50.72512971822233 -8.59448377031365" fill="#34ff61" stroke="none" /><path d="M 79.29508885075956 103.50808413554451 l -50.70277210200542 8.59069566428442 a72.42539402692267,72.42539402692267 0 0,0 -0.19768078691978377,-1.230958448850558 l 50.8431346432865 -7.716657985740647" fill="#34ff60" stroke="none" /><path d="M 79.23777060512086 103.15116336523772 l -50.642812407085046 7.686254309913995 a72.22277768547777,72.22277768547777 0 0,0 -0.17596890278546032,-1.230726096233388 l 50.767615360887106 -6.813382741700207" fill="#34ff5c" stroke="none" /><path d="M 79.18660465613746 102.79330883721812 l -51.154829535286076 6.86534969650865 a72.61346346874552,72.61346346874552 0 0,0 -0.15559506021203223,-1.2402457212351838 l 51.26542610474496 -5.983786220986058" fill="#35ff64" stroke="none" /><path d="M 79.10278846688536 102.07522291339032 l -50.91990226144061 5.056662596016088 a72.1703652803516,72.1703652803516 0 0,0 -0.1121232049572579,-1.2372702236273798 l 50.999400062674944 -4.1794109838401425" fill="#34ff5b" stroke="none" /><line stroke="#e1ed5e" stroke-width="0.3" x1="15.007084014347285" x2="10.007500721073583" y1="101.09737516637583" y2="101.16192664675087" /><path d="M 14.007167355692545 101.11028546245083 a86.0,86.0 0 0,1 10.666146001902534,-42.60595125391555" fill="none" id="id22" stroke="none" /><text fill="#e1ed5e" style="font-size:6.75px; font-family:Arial;" text-anchor="middle"><textPath startOffset="22.20632615414155" xlink:href="#id22">October</textPath></text><path d="M 79.26566170972629 96.67025291283419 l -56.12112808932086 -9.012545284434474 a77.84018816402653,77.84018816402653 0 0,0 0.22383924105433955,-1.3211118715156709 l 55.9576769867463 9.977242944265972" fill="#40ffc6" stroke="none" /><path d="M 79.32604984820605 96.31383870115002 l -53.0211531990018 -9.453661322947376 a74.85735232037507,74.85735232037507 0 0,0 0.23709917141019946,-1.2665932544065361 l 52.85056830368174 10.364932654816483" fill="#3aff8f" stroke="none" /><path d="M 79.62865764111835 94.90015583598534 l -49.7431570813414 -12.45290294924236 a72.27822606411277,72.27822606411277 0 0,0 0.31252990726326657,-1.2043052216581112 l 49.52143084220783 13.307304596449335" fill="#34ff5d" stroke="none" /><path d="M 79.71946130924805 94.55025226153421 l -50.566019001641735 -13.588004337531606 a73.35987146232476,73.35987146232476 0 0,0 0.33820028890973003,-1.2166863815698572 l 50.324631942165645 14.456402022520406" fill="#36ff72" stroke="none" /><path d="M 79.81627453868168 94.20196356495316 l -50.71847061699967 -14.569537280458514 a73.76963784501585,73.76963784501585 0 0,0 0.361099225841556,-1.2174470774968025 l 50.4601654940464 15.440413744701857" fill="#37ff7a" stroke="none" /><path d="M 79.91906864156998 93.8553929516997 l -51.071865123933215 -15.627589020098997 a74.40933388293047,74.40933388293047 0 0,0 0.385314619820451,-1.2215526415457922 l 50.79529502034456 16.504391828071203" fill="#39ff87" stroke="none" /><path d="M 80.02781315780177 93.51064311812611 l -49.82053192322166 -16.187672098654982 a73.38440730872424,73.38440730872424 0 0,0 0.40068832080823075,-1.198007078644495 l 49.53450630864165 17.042852280221798" fill="#36ff73" stroke="none" /><path d="M 80.14247586403 93.16781622104843 l -49.06837260267157 -16.882474222869593 a72.89145522877988,72.89145522877988 0 0,0 0.4184209696723387,-1.1829324264374568 l 48.77049855218942 17.72460427573366" fill="#35ff69" stroke="none" /><path d="M 80.2630227832202 92.82701384747504 l -49.26292986001788 -17.903568000184855 a73.41539855357664,73.41539855357664 0 0,0 0.4418747385950635,-1.1840046131364743 l 48.94745053292119 18.74889575035067" fill="#37ff73" stroke="none" /><path d="M 80.52162464483688 92.15188598940014 l -47.45166327055334 -19.118948913836523 a72.1585237737747,72.1585237737747 0 0,0 0.4741100660517851,-1.1480951310174963 l 47.11553151761535 19.93291861530733" fill="#34ff5b" stroke="none" /><path d="M 80.65960295795068 91.81776055985345 l -47.37657517370204 -20.043356973619655 a72.44196763306579,72.44196763306579 0 0,0 0.4957420831498753,-1.144241077700852 l 47.02454238070948 20.855897195907104" fill="#34ff60" stroke="none" /><line stroke="#e1ed5e" stroke-width="0.3" x1="26.266209847984243" x2="21.928928074336255" y1="57.71137044288968" y2="55.22380399835378" /><path d="M 25.398753493254645 57.2138571539825 a86.0,86.0 0 0,1 29.58750427330803,-30.4925239686951" fill="none" id="id23" stroke="none" /><text fill="#e1ed5e" style="font-size:6.75px; font-family:Arial;" text-anchor="middle"><textPath startOffset="21.46611528233685" xlink:href="#id23">November</textPath></text><line stroke="#e1ed5e" stroke-width="0.3" x1="56.76296977257108" x2="54.21961505331056" y1="26.818313649435495" y2="22.513508569990535" /><path d="M 56.25429882871898 25.957352633546506 a86.0,86.0 0 0,1 42.26535254187918,-11.944610805530505" fill="none" id="id24" stroke="none" /><text fill="#e1ed5e" style="font-size:6.75px; font-family:Arial;" text-anchor="middle"><textPath startOffset="22.20632615414155" xlink:href="#id24">December</textPath></text></svg>