<?xml version="1.0" encoding="utf-8" ?>
<svg baseProfile="full" height="200mm" version="1.1" viewBox="0,0,200,200" width="200mm" xmlns="http://www.w3.org/2000/svg" xmlns:ev="http://www.w3.org/2001/xml-events" xmlns:xlink="http://www.w3.org/1999/xlink"><defs /><rect fill="#1e272e" height="200" width="200" x="0" y="0" /><text alignment-baseline="middle" fill="#e1ed5e" style="dominant-baseline: central; font-size:9.0px; font-family:Arial;" text-anchor="middle" x="100.0" y="100.0">2021</text><line stroke="#e1ed5e" stroke-width="0.3" x1="100.0" x2="100.0" y1="15.0" y2="10.0" /><path d="M 100.0 14.0 a86.0,86.0 0 0,1 42.46469731375804,11.215312516191453" fill="none" id="id61" stroke="none" /><text fill="#e1ed5e" style="font-size:6.75px; font-family:Arial;" text-anchor="middle"><textPath startOffset="22.20632615414155" xlink:href="#id61">January</textPath></text><line stroke="#e1ed5e" stroke-width="0.3" x1="143.23703022742887" x2="145.7803849466894" y1="26.81831364943548" y2="22.513508569990506" /><path d="M 143.74570117128098 25.957352633546492 a86.0,86.0 0 0,1 28.547481713284135,27.462654790039103" fill="none" id="id62" stroke="none" /><text fill="#e1ed5e" style="font-size:6.75px; font-family:Arial;" text-anchor="middle"><textPath startOffset="19.985693538727396" xlink:href="#id62">February</textPath></text><line stroke="#e1ed5e" stroke-width="0.3" x1="172.23445277983987" x2="176.4835382374775" y1="55.19839476539836" y2="52.563006222186495" /><path d="M 173.08426987136738 54.67131705675599 a86.0,86.0 0 0,1 12.851231095245387,41.99856678651699" fill="none" id="id63" stroke="none" /><text fill="#e1ed5e" style="font-size:6.75px; font-family:Arial;" text-anchor="middle"><textPath startOffset="22.20632615414155" xlink:href="#id63">March</textPath></text><line stroke="#e1ed5e" stroke-width="0.3" x1="184.98032266829074" x2="189.97916517819016" y1="98.17113171792111" y2="98.06355123074" /><path d="M 185.9800911702706 98.14961562048488 a86.0,86.0 0 0,1 -9.607161424134198,41.387399972396054" fill="none" id="id64" stroke="none" /><text fill="#e1ed5e" style="font-size:6.75px; font-family:Arial;" text-anchor="middle"><textPath startOffset="21.466115282336823" xlink:href="#id64">April</textPath></text><line stroke="#e1ed5e" stroke-width="0.3" x1="174.80103733775053" x2="179.2010983576182" y1="140.37084112569926" y2="142.7455964860345" /><path d="M 175.68104954172406 140.8457921977663 a86.0,86.0 0 0,1 -30.038265399797805,32.042727171017184" fill="none" id="id65" stroke="none" /><text fill="#e1ed5e" style="font-size:6.75px; font-family:Arial;" text-anchor="middle"><textPath startOffset="22.206326154141568" xlink:href="#id65">May</textPath></text><line stroke="#e1ed5e" stroke-width="0.3" x1="143.8653032363475" x2="146.44561519142675" y1="172.8068346515853" y2="177.08958963109032" /><path d="M 144.38136562736335 173.6633856474863 a86.0,86.0 0 0,1 -40.68145358897372,12.25698825130547" fill="none" id="id66" stroke="none" /><text fill="#e1ed5e" style="font-size:6.75px; font-family:Arial;" text-anchor="middle"><textPath startOffset="21.466115282336833" xlink:href="#id66">June</textPath></text><line stroke="#e1ed5e" stroke-width="0.3" x1="102.19456741930631" x2="102.32365962044197" y1="184.97166512339345" y2="189.96999836594603" /><path d="M 102.22038585953345 185.97133177190398 a86.0,86.0 0 0,1 -42.740103519485714,-10.115201625700543" fill="none" id="id67" stroke="none" /><text fill="#e1ed5e" style="font-size:6.75px; font-family:Arial;" text-anchor="middle"><textPath startOffset="22.20632615414155" xlink:href="#id67">July</textPath></text><path d="M 99.09653310690486 120.98055641714683 l -0.9022691831332452 20.9527428673434 a41.97216067418523,41.97216067418523 0 0,0 -0.7215452760879528,-0.037295648989914616 l 1.262802527634687 -20.93410741159128" fill="#ff0000" stroke="none" /><path d="M 98.01472825383883 120.90594882070398 l -5.377707771250073 56.630072762506664 a77.8848387706229,77.8848387706229 0 0,0 -1.3335642495497557,-0.1382293870810651 l 6.351704617405422 -56.52911400696984" fill="#42ffd5" stroke="none" /><path d="M 96.93821686468263 120.77559828337769 l -7.668686621607116 52.03554450799081 a73.597591643948,73.597591643948 0 0,0 -1.2517342980954123,-0.19549515414647256 l 8.563256783311045 -51.89583104649723" fill="#3aff92" stroke="none" /><path d="M 96.22490169976321 120.6578951692458 l -9.45181583497685 51.721731501858315 a73.5782686300019,73.5782686300019 0 0,0 -1.2439365822568664,-0.23840340658354042 l 10.34072003180541 -51.55137089692631" fill="#3aff92" stroke="none" /><path d="M 95.51606077576429 120.51570834832081 l -11.233084035108671 51.39558419321554 a73.6088229435113,73.6088229435113 0 0,0 -1.2355060435474348,-0.28119715304905674 l 12.116110228048967 -51.1946103065888" fill="#3aff92" stroke="none" /><path d="M 94.46302465271185 120.25689768951611 l -13.903367533263465 50.865152180783426 a73.73108509351255,73.73108509351255 0 0,0 -1.221368878374259,-0.34517104495254186 l 14.776867579742339 -50.61829234249236" fill="#3aff94" stroke="none" /><path d="M 93.76903079525671 120.05430185196036 l -16.13590298641425 51.93321592685222 a75.38222394948582,75.38222394948582 0 0,0 -1.235832888827737,-0.39567466468630064 l 17.027457220332927 -51.647768415506214" fill="#3dffaf" stroke="none" /><path d="M 93.08242187328487 119.8279376855182 l -20.752734380145377 59.483813056554574 a84.0,84.0 0 0,0 -1.3611217574810934,-0.4880498358401688 l 21.773575698256195 -59.117775679674445" fill="#4dd2ff" stroke="none" /><path d="M 92.06813273071674 119.44442032107085 l -20.02012027311194 49.077930864563804 a74.00423109240216,74.00423109240216 0 0,0 -1.1753582470124526,-0.49129984257558146 l 20.86194997962185 -48.72604597896825" fill="#3bff99" stroke="none" /><path d="M 91.07499286063937 119.00905698771935 l -23.357400344255755 49.74810073493571 a75.9585450824087,75.9585450824087 0 0,0 -1.1787584571185479,-0.5658756924503827 l 24.210271469374547 -49.33867076598577" fill="#3effb8" stroke="none" /><line stroke="#e1ed5e" stroke-width="0.3" x1="58.666819895761336" x2="56.23545636021788" y1="174.27360380694188" y2="178.64263932499728" /><path d="M 58.180547188652646 175.14741091055294 a86.0,86.0 0 0,1 -31.652253787137756,-30.449443065178592" fill="none" id="id68" stroke="none" /><text fill="#e1ed5e" style="font-size:6.75px; font-family:Arial;" text-anchor="middle"><textPath startOffset="22.20632615414155" xlink:href="#id68">August</textPath></text><path d="M 87.65650970185807 116.9893568818739 l -32.297239105703 44.45333598622419 a75.94734510561075,75.94734510561075 0 0,0 -1.0510209497380274,-0.7775201722539861 l 33.05764502585959 -43.89080586523043" fill="#3effb8" stroke="none" /><path d="M 87.07902340077011 116.55440617244103 l -38.73390297081871 49.62602923226958 a83.9528237390101,83.9528237390101 0 0,0 -1.1315341773593866,-0.8989591848765883 l 39.58239464089546 -48.95193613338786" fill="#4dd3ff" stroke="none" /><path d="M 86.51685102203217 116.09983520530335 l -35.21288946792091 42.04668497414572 a75.84406350732107,75.84406350732107 0 0,0 -0.9936819175022017,-0.8468372875642047 l 35.93143686200017 -41.43432329635856" fill="#3effb6" stroke="none" /><path d="M 84.9287848128048 114.62390073753433 l -37.73243591434823 36.61253525632229 a73.57579726381559,73.57579726381559 0 0,0 -0.8741275902091435,-0.9165192836182341 l 38.357070055936326 -35.95760885612155" fill="#3aff92" stroke="none" /><line stroke="#e1ed5e" stroke-width="0.3" x1="26.63291911575756" x2="22.317208475507996" y1="142.92168965132927" y2="145.44649492493687" /><path d="M 25.769776987707644 143.4266507060508 a86.0,86.0 0 0,1 -11.730757126820373,-40.83630448921669" fill="none" id="id69" stroke="none" /><text fill="#e1ed5e" style="font-size:6.75px; font-family:Arial;" text-anchor="middle"><textPath startOffset="21.46611528233685" xlink:href="#id69">September</textPath></text><line stroke="#e1ed5e" stroke-width="0.3" x1="15.007084014347285" x2="10.007500721073583" y1="101.09737516637583" y2="101.16192664675087" /><path d="M 14.007167355692545 101.11028546245083 a86.0,86.0 0 0,1 10.666146001902534,-42.60595125391555" fill="none" id="id70" stroke="none" /><text fill="#e1ed5e" style="font-size:6.75px; font-family:Arial;" text-anchor="middle"><textPath startOffset="22.20632615414155" xlink:href="#id70">October</textPath></text><line stroke="#e1ed5e" stroke-width="0.3" x1="26.266209847984243" x2="21.928928074336255" y1="57.71137044288968" y2="55.22380399835378" /><path d="M 25.398753493254645 57.2138571539825 a86.0,86.0 0 0,1 29.58750427330803,-30.4925239686951" fill="none" id="id71" stroke="none" /><text fill="#e1ed5e" style="font-size:6.75px; font-family:Arial;" text-anchor="middle"><textPath startOffset="21.46611528233685" xlink:href="#id71">November</textPath></text><line stroke="#e1ed5e" stroke-width="0.3" x1="56.76296977257108" x2="54.21961505331056" y1="26.818313649435495" y2="22.513508569990535" /><path d="M 56.25429882871898 25.957352633546506 a86.0,86.0 0 0,1 42.26535254187918,-11.944610805530505" fill="none" id="id72" stroke="none" /><text fill="#e1ed5e" style="font-size:6.75px; font-family:Arial;" text-anchor="middle"><textPath startOffset="22.20632615414155" xlink:href="#id72">December</textPath></text></svg>