<?xml version="1.0" encoding="utf-8" ?>
<svg baseProfile="full" height="200mm" version="1.1" viewBox="0,0,200,200" width="200mm" xmlns="http://www.w3.org/2000/svg" xmlns:ev="http://www.w3.org/2001/xml-events" xmlns:xlink="http://www.w3.org/1999/xlink"><defs /><rect fill="#1a1a1a" height="200" width="200" x="0" y="0" /><text alignment-baseline="middle" fill="#e1ed5e" style="dominant-baseline: central; font-size:9.0px; font-family:Arial;" text-anchor="middle" x="100.0" y="100.0">2017</text><line stroke="#e1ed5e" stroke-width="0.3" x1="100.0" x2="100.0" y1="15.0" y2="10.0" /><path d="M 100.0 14.0 a86.0,86.0 0 0,1 42.46469731375804,11.215312516191453" fill="none" id="id13" stroke="none" /><text fill="#e1ed5e" style="font-size:6.75px; font-family:Arial;" text-anchor="middle"><textPath startOffset="22.20632615414155" xlink:href="#id13">January</textPath></text><line stroke="#e1ed5e" stroke-width="0.3" x1="143.23703022742887" x2="145.7803849466894" y1="26.81831364943548" y2="22.513508569990506" /><path d="M 143.74570117128098 25.957352633546492 a86.0,86.0 0 0,1 28.547481713284135,27.462654790039103" fill="none" id="id14" stroke="none" /><text fill="#e1ed5e" style="font-size:6.75px; font-family:Arial;" text-anchor="middle"><textPath startOffset="19.985693538727396" xlink:href="#id14">February</textPath></text><path d="M 111.2981086023043 82.29822771554956 l 32.27201257667207 -50.5634914570264 a80.98457688500989,80.98457688500989 0 0,0 1.1686189142412469,0.7601022490724223 l -33.137598516697594 50.000490283794456" fill="#3fffbb" stroke="none" /><path d="M 111.60114157652 82.49532879139004 l 30.19349643784574 -45.558208586345685 a75.65526138204066,75.65526138204066 0 0,0 1.0793314835002583,0.7287694356912989 l -30.97323261575254 45.03172723835572" fill="#82ff25" stroke="none" /><path d="M 111.90073688211348 82.69761687909136 l 26.544894545200506 -38.593403070315674 a67.84103101943495,67.84103101943495 0 0,0 0.956457940161633,0.6700599102834678 l -27.20528362494579 38.130758317268274" fill="#ff0000" stroke="none" /><path d="M 112.19680574252982 82.90503203632743 l 30.83443319488691 -43.2173520487063 a74.08956383840201,74.08956383840201 0 0,0 1.0318019025640779,0.7496479626896417 l -31.573780413804776 42.68018485119999" fill="#c5ff1e" stroke="none" /><path d="M 112.48926042617603 83.11751280151076 l 31.56571054684099 -42.66927632490934 a74.07599480385099,74.07599480385099 0 0,0 1.018558495894572,0.7671571421756497 l -32.295515196493945 42.119602593227846" fill="#c6ff1e" stroke="none" /><path d="M 112.77801427241765 83.33499621200491 l 33.099835704414325 -43.16859221129307 a75.39785360806191,75.39785360806191 0 0,0 1.0231396994834634,0.7985767642198333 l -33.83800795905722 42.592437057850006" fill="#8dff24" stroke="none" /><path d="M 113.06298171725822 83.55741782278167 l 33.919629976510734 -42.69517598518669 a75.5290688545978,75.5290688545978 0 0,0 1.0109983126007611,0.8174903252365706 l -34.64953168767599 42.10497956268599" fill="#87ff25" stroke="none" /><path d="M 113.34407831869373 83.78471172551755 l 39.614760822776915 -48.138563887631875 a83.34300769299983,83.34300769299983 0 0,0 1.0998993537749144,0.9211340773744414 l -40.43751771351095 47.44952865286361" fill="#4ae9ff" stroke="none" /><path d="M 114.16331599549186 84.49514656593476 l 36.27761998972353 -39.71380579635547 a74.78895874572612,74.78895874572612 0 0,0 0.9430250788124152,0.8764390361702907 l -36.955852952330794 39.083462174110544" fill="#a7ff21" stroke="none" /><path d="M 114.42810811169701 84.74124197986012 l 35.8279279320921 -37.89060065578502 a73.14727258412813,73.14727258412813 0 0,0 0.9074328662959608,0.8729496984186044 l -36.474844042000484 37.26826787060412" fill="#efff19" stroke="none" /><path d="M 114.94478906791727 85.2469230424477 l 37.85957250171754 -37.373909003301144 a74.19921337952132,74.19921337952132 0 0,0 0.8894568387020916,0.9166634577459445 l -38.49729360412274 36.71668135000508" fill="#c0ff1e" stroke="none" /><path d="M 115.19652480421416 85.50635884689758 l 37.09888902034956 -35.382957062038834 a72.26676522854058,72.26676522854058 0 0,0 0.8507955190468532,0.9075693397171295 l -37.70245186136688 34.739118305443654" fill="#ffe515" stroke="none" /><path d="M 115.9244219780498 86.31012108654704 l 40.4027430264589 -34.733358646610995 a74.28027634065143,74.28027634065143 0 0,0 0.8251809570246653,0.976753977645129 l -40.994634596970684 34.03274571933676" fill="#bdff1f" stroke="none" /><path d="M 116.38621287248628 86.86637796730983 l 41.611843251965695 -33.35207626116624 a74.32828976965989,74.32828976965989 0 0,0 0.7915818430197068,1.0052285542402846 l -42.17977917557936 32.63085531297291" fill="#baff1f" stroke="none" /><path d="M 116.60985879189232 87.15038557335679 l 41.71364449056194 -32.27024713150647 a73.7389513226561,73.7389513226561 0 0,0 0.7680229903289437,1.0106282286298964 l -42.262943421115 31.54743412699554" fill="#d5ff1c" stroke="none" /><path d="M 116.82858285166822 87.43820079747576 l 50.48574855500462 -37.68539760757273 a84.0,84.0 0 0,0 0.8549495499454944,1.1661502253140252 l -51.126960717463746 36.81078493858721" fill="#4dd2ff" stroke="none" /><path d="M 117.45458315368197 88.32363383020206 l 42.193108478392105 -28.2253766874855 a71.76347399676084,71.76347399676084 0 0,0 0.6780054618743531,1.0326488337156685 l -42.67271057562438 27.494909789792157" fill="#ffcd13" stroke="none" /><path d="M 117.65298651832404 88.62581576622439 l 44.95541613391206 -28.965704181691613 a74.47898146481913,74.47898146481913 0 0,0 0.685108756129144,1.0836775229726439 l -45.44735248628716 28.18757901100476" fill="#b4ff20" stroke="none" /><line stroke="#e1ed5e" stroke-width="0.3" x1="172.23445277983987" x2="176.4835382374775" y1="55.19839476539836" y2="52.563006222186495" /><path d="M 173.08426987136738 54.67131705675599 a86.0,86.0 0 0,1 12.851231095245387,41.99856678651699" fill="none" id="id15" stroke="none" /><text fill="#e1ed5e" style="font-size:6.75px; font-family:Arial;" text-anchor="middle"><textPath startOffset="22.20632615414155" xlink:href="#id15">March</textPath></text><path d="M 118.21658344932153 89.55222093294921 l 44.66764834980534 -25.61829020802818 a72.49267522944035,72.49267522944035 0 0,0 0.6115011180554529,1.087792255892293 l -45.10200710915323 24.845614442201096" fill="#fff016" stroke="none" /><line stroke="#e1ed5e" stroke-width="0.3" x1="184.98032266829074" x2="189.97916517819016" y1="98.17113171792111" y2="98.06355123074" /><path d="M 185.9800911702706 98.14961562048488 a86.0,86.0 0 0,1 -9.607161424134198,41.387399972396054" fill="none" id="id16" stroke="none" /><text fill="#e1ed5e" style="font-size:6.75px; font-family:Arial;" text-anchor="middle"><textPath startOffset="21.466115282336823" xlink:href="#id16">April</textPath></text><line stroke="#e1ed5e" stroke-width="0.3" x1="174.80103733775053" x2="179.2010983576182" y1="140.37084112569926" y2="142.7455964860345" /><path d="M 175.68104954172406 140.8457921977663 a86.0,86.0 0 0,1 -30.038265399797805,32.042727171017184" fill="none" id="id17" stroke="none" /><text fill="#e1ed5e" style="font-size:6.75px; font-family:Arial;" text-anchor="middle"><textPath startOffset="22.206326154141568" xlink:href="#id17">May</textPath></text><line stroke="#e1ed5e" stroke-width="0.3" x1="143.8653032363475" x2="146.44561519142675" y1="172.8068346515853" y2="177.08958963109032" /><path d="M 144.38136562736335 173.6633856474863 a86.0,86.0 0 0,1 -40.68145358897372,12.25698825130547" fill="none" id="id18" stroke="none" /><text fill="#e1ed5e" style="font-size:6.75px; font-family:Arial;" text-anchor="middle"><textPath startOffset="21.466115282336833" xlink:href="#id18">June</textPath></text><line stroke="#e1ed5e" stroke-width="0.3" x1="102.19456741930631" x2="102.32365962044197" y1="184.97166512339345" y2="189.96999836594603" /><path d="M 102.22038585953345 185.97133177190398 a86.0,86.0 0 0,1 -42.740103519485714,-10.115201625700543" fill="none" id="id19" stroke="none" /><text fill="#e1ed5e" style="font-size:6.75px; font-family:Arial;" text-anchor="middle"><textPath startOffset="22.20632615414155" xlink:href="#id19">July</textPath></text><line stroke="#e1ed5e" stroke-width="0.3" x1="58.666819895761336" x2="56.23545636021788" y1="174.27360380694188" y2="178.64263932499728" /><path d="M 58.180547188652646 175.14741091055294 a86.0,86.0 0 0,1 -31.652253787137756,-30.449443065178592" fill="none" id="id20" stroke="none" /><text fill="#e1ed5e" style="font-size:6.75px; font-family:Arial;" text-anchor="middle"><textPath startOffset="22.20632615414155" xlink:href="#id20">August</textPath></text><path d="M 82.24976979558568 111.22182372390057 l -43.15329928620254 27.281827453373435 a72.05394547417671,72.05394547417671 0 0,0 -0.6537535459175104,-1.054058875679729 l 43.61651747178801 -26.534972246328444" fill="#ffdb14" stroke="none" /><path d="M 82.05923443525364 110.91462005526583 l -43.642501406927266 26.550780087892516 a72.08436015385999,72.08436015385999 0 0,0 -0.6357810506452959,-1.0656056109392258 l 44.09306333327079 -25.79561238306718" fill="#ffdd14" stroke="none" /><line stroke="#e1ed5e" stroke-width="0.3" x1="26.63291911575756" x2="22.317208475507996" y1="142.92168965132927" y2="145.44649492493687" /><path d="M 25.769776987707644 143.4266507060508 a86.0,86.0 0 0,1 -11.730757126820373,-40.83630448921669" fill="none" id="id21" stroke="none" /><text fill="#e1ed5e" style="font-size:6.75px; font-family:Arial;" text-anchor="middle"><textPath startOffset="21.46611528233685" xlink:href="#id21">September</textPath></text><path d="M 81.87401531095188 110.60418214915194 l -44.045542559573015 25.76781146914142 a72.02930459330574,72.02930459330574 0 0,0 -0.6168726976018306,-1.0755695446232272 l 44.482567253327225 -25.005822078659886" fill="#ffda14" stroke="none" /><path d="M 81.69416730710424 110.29060199501025 l -45.79997431076971 25.74640088329517 a73.54060149361166,73.54060149361166 0 0,0 -0.6108197982671862,-1.1088153584587894 l 46.236370518488414 -24.954215006438556" fill="#ddff1b" stroke="none" /><path d="M 81.35079622478065 109.6543875284942 l -46.14724535234229 23.889673541774297 a72.96426421630376,72.96426421630376 0 0,0 -0.5678055769664124,-1.1203342710837925 l 46.551629599094966 -23.09178505898782" fill="#f8ff18" stroke="none" /><path d="M 81.18737489456691 109.33194174019688 l -46.0983793714084 22.8669517518445 a72.458313838402,72.458313838402 0 0,0 -0.5446337557419237,-1.1221068520181796 l 46.48516638376504 -22.070055943861036" fill="#ffef16" stroke="none" /><path d="M 81.02952815118164 109.00673069616217 l -46.160660561810666 21.91598826589435 a72.09909123627857,72.09909123627857 0 0,0 -0.5226338947115619,-1.125706913514701 l 46.53106907336205 -21.11816128510082" fill="#ffdd14" stroke="none" /><path d="M 80.87730276802145 108.67885076344099 l -46.467966237210995 21.089522014653706 a72.02979350368904,72.02979350368904 0 0,0 -0.5026956382347889,-1.1334459564467454 l 46.82410296017706 -20.286527721714265" fill="#ffda14" stroke="none" /><path d="M 80.73074385275274 108.34839909993369 l -46.79166884757157 20.27247565273902 a71.99444619398956,71.99444619398956 0 0,0 -0.48287367171555745,-1.1413707213588657 l 47.13369350047944 -19.46403040571399" fill="#ffd814" stroke="none" /><path d="M 80.58989483394504 108.01547362559985 l -47.07365036429003 19.439235373929925 a71.92948488393017,71.92948488393017 0 0,0 -0.4627373983634147,-1.1484762739201506 l 47.401290376910836 -18.62605973216697" fill="#ffd513" stroke="none" /><path d="M 80.45479744820244 107.68017299344265 l -47.56336302371032 18.689745230520156 a72.10362099604103,72.10362099604103 0 0,0 -0.44397193603855567,-1.1590706282979697 l 47.87802923934239 -17.868251035389026" fill="#ffde14" stroke="none" /><path d="M 80.32549172779594 107.34259656027581 l -47.84146576728487 17.85460541739203 a72.06459420550657,72.06459420550657 0 0,0 -0.42372519166112127,-1.1659097447229076 l 48.141715219951216 -17.028447875663005" fill="#ffdc14" stroke="none" /><path d="M 80.20201598880116 107.00284435728193 l -48.680063091373235 17.218869605042617 a72.6356273618859,72.6356273618859 0 0,0 -0.40679122752136665,-1.1823257219298362 l 48.96924514983783 -16.378371180023485" fill="#fff717" stroke="none" /><path d="M 80.0844068197444 106.66101706037122 l -48.464748190842485 16.209635917138876 a72.10366047327695,72.10366047327695 0 0,0 -0.3835494097599242,-1.180443704111409 l 48.73658985161866 -15.372993313049662" fill="#ffde14" stroke="none" /><path d="M 79.97269907076064 106.31721596034903 l -48.690712509847614 15.358522212990875 a72.05555493071802,72.05555493071802 0 0,0 -0.3629308858992313,-1.1860791341592152 l 48.947870168252976 -14.518116106279612" fill="#ffdb14" stroke="none" /><path d="M 79.67330655649465 105.27499134158121 l -49.48879715085805 12.84286483690022 a72.12807663757422,72.12807663757422 0 0,0 -0.3015251928779889,-1.2044432606956503 l 49.70253365803109 -11.989093736807177" fill="#ffdf14" stroke="none" /><path d="M 79.50377843672027 104.57218783832718 l -49.93207494445059 11.13858108425554 a72.15935981644772,72.15935981644772 0 0,0 -0.2600003488352609,-1.2146350711852787 l 50.11640933201029 -10.277432193654098" fill="#ffe015" stroke="none" /><path d="M 79.4281124754447 104.21870165774334 l -50.11127581339245 10.27637945683171 a72.15411946643871,72.15411946643871 0 0,0 -0.23903652035056722,-1.2188420674389522 l 50.28074226671869 -9.412273662324804" fill="#ffe015" stroke="none" /><path d="M 79.35854240842038 103.8639653848113 l -50.2364498796584 9.403982375255936 a72.10905771999279,72.10905771999279 0 0,0 -0.21788458342392056,-1.222012454516278 l 50.39088090542151 -8.537851170006444" fill="#ffde14" stroke="none" /><path d="M 79.29508885075956 103.50808413554451 l -50.32706196494348 8.527038169601639 a72.04432922440165,72.04432922440165 0 0,0 -0.19664069330287107,-1.2244817849051979 l 50.466384412607646 -7.659477155003227" fill="#ffdb14" stroke="none" /><path d="M 79.23777060512086 103.15116336523772 l -50.606757237608456 7.6807820782465175 a72.18630960950154,72.18630960950154 0 0,0 -0.1758800492752259,-1.2301046549897545 l 50.73147133790028 -6.808531951276362" fill="#ffe215" stroke="none" /><path d="M 79.18660465613746 102.79330883721812 l -50.71896090832924 6.806852960756033 a72.17368701637574,72.17368701637574 0 0,0 -0.15465271370606007,-1.232734292399588 l 50.82861513128215 -5.932800914069037" fill="#ffe115" stroke="none" /><path d="M 79.10278846688536 102.07522291339032 l -50.86838741029117 5.051546851299823 a72.11859703976965,72.11859703976965 0 0,0 -0.11204277830254307,-1.2363827221944454 l 50.94780478487079 -4.175182740556811" fill="#ffde14" stroke="none" /><line stroke="#e1ed5e" stroke-width="0.3" x1="15.007084014347285" x2="10.007500721073583" y1="101.09737516637583" y2="101.16192664675087" /><path d="M 14.007167355692545 101.11028546245083 a86.0,86.0 0 0,1 10.666146001902534,-42.60595125391555" fill="none" id="id22" stroke="none" /><text fill="#e1ed5e" style="font-size:6.75px; font-family:Arial;" text-anchor="middle"><textPath startOffset="22.20632615414155" xlink:href="#id22">October</textPath></text><path d="M 79.26566170972629 96.67025291283419 l -55.99408691373386 -8.992143621336337 a77.7115192549937,77.7115192549937 0 0,0 0.22346923744021022,-1.3189280892403779 l 55.83100581477343 9.954657498892544" fill="#32ff2f" stroke="none" /><path d="M 79.32604984820605 96.31383870115002 l -52.642634027912 -9.386171428219983 a74.47286350548858,74.47286350548858 0 0,0 0.23588136211558372,-1.2600876684589337 l 52.47326694188656 10.290937174141488" fill="#b4ff20" stroke="none" /><path d="M 79.62865764111835 94.90015583598534 l -50.26189016821699 -12.582764686342388 a72.81296720352708,72.81296720352708 0 0,0 0.3148421194993937,-1.2132151186146416 l 50.037851716847285 13.446076230505893" fill="#ffff18" stroke="none" /><path d="M 79.71946130924805 94.55025226153421 l -50.30439841611909 -13.517702151971896 a73.08896976786036,73.08896976786036 0 0,0 0.33695139043829464,-1.2121934292809713 l 50.06426025511444 14.38160688467181" fill="#f2ff19" stroke="none" /><path d="M 79.81627453868168 94.20196356495316 l -50.44028650060119 -14.489625291682172 a73.48020334712973,73.48020334712973 0 0,0 0.35968245633893087,-1.2126704350477977 l 50.183398147150555 15.355725113476508" fill="#e0ff1b" stroke="none" /><path d="M 79.91906864156998 93.8553929516997 l -50.74806302895509 -15.528508125914186 a74.07071193989563,74.07071193989563 0 0,0 0.3835611303261275,-1.215993600664572 l 50.47324641486075 16.399751893005174" fill="#c6ff1e" stroke="none" /><path d="M 80.02781315780177 93.51064311812611 l -49.47167261572676 -16.074320838435717 a73.01759492531943,73.01759492531943 0 0,0 0.3986854779244583,-1.1920188333486692 l 49.18764984403053 16.92351277470671" fill="#f5ff19" stroke="none" /><path d="M 80.14247586403 93.16781622104843 l -48.84172377421424 -16.8044933810133 a72.65176646571891,72.65176646571891 0 0,0 0.4170450771984574,-1.1790425931341213 l 48.54522561620597 17.642733600574037" fill="#fff817" stroke="none" /><path d="M 80.2630227832202 92.82701384747504 l -48.92765777336929 -17.781720464544296 a73.05867149541119,73.05867149541119 0 0,0 0.43972765938985275,-1.1782515083271303 l 48.61432552547781 18.621295109900768" fill="#f3ff19" stroke="none" /><path d="M 80.52162464483688 92.15188598940014 l -47.23419050946025 -19.031326050423218 a71.92406233129385,71.92406233129385 0 0,0 0.4725695615601706,-1.1443646771993512 l 46.899599261013876 19.841565298075878" fill="#ffd513" stroke="none" /><path d="M 80.65960295795067 91.81776055985345 l -47.20248251242303 -19.96970451259416 a72.25293604912723,72.25293604912723 0 0,0 0.49444848340011555,-1.1412552711250115 l 46.85174331918024 20.77925892830577" fill="#ffe515" stroke="none" /><line stroke="#e1ed5e" stroke-width="0.3" x1="26.266209847984243" x2="21.928928074336255" y1="57.711370442889674" y2="55.22380399835377" /><path d="M 25.398753493254645 57.213857153982495 a86.0,86.0 0 0,1 29.58750427330803,-30.492523968695096" fill="none" id="id23" stroke="none" /><text fill="#e1ed5e" style="font-size:6.75px; font-family:Arial;" text-anchor="middle"><textPath startOffset="21.46611528233685" xlink:href="#id23">November</textPath></text><line stroke="#e1ed5e" stroke-width="0.3" x1="56.76296977257108" x2="54.21961505331056" y1="26.818313649435495" y2="22.513508569990535" /><path d="M 56.25429882871898 25.957352633546506 a86.0,86.0 0 0,1 42.26535254187918,-11.944610805530505" fill="none" id="id24" stroke="none" /><text fill="#e1ed5e" style="font-size:6.75px; font-family:Arial;" text-anchor="middle"><textPath startOffset="22.20632615414155" xlink:href="#id24">December</textPath></text></svg>