<?xml version="1.0" encoding="utf-8" ?>
<svg baseProfile="full" height="200mm" version="1.1" viewBox="0,0,200,200" width="200mm" xmlns="http://www.w3.org/2000/svg" xmlns:ev="http://www.w3.org/2001/xml-events" xmlns:xlink="http://www.w3.org/1999/xlink"><defs /><rect fill="#1a1a1a" height="200" width="200" x="0" y="0" /><text alignment-baseline="middle" fill="#e1ed5e" style="dominant-baseline: central; font-size:9.0px; font-family:Arial;" text-anchor="middle" x="100.0" y="100.0">2024</text><line stroke="#e1ed5e" stroke-width="0.3" x1="100.0" x2="100.0" y1="15.0" y2="10.0" /><path d="M 100.0 14.0 a86.0,86.0 0 0,1 42.35913384403234,11.155469271406648" fill="none" id="id97" stroke="none" /><text fill="#e1ed5e" style="font-size:6.75px; font-family:Arial;" text-anchor="middle"><textPath startOffset="22.145653131862478" xlink:href="#id97">January</textPath></text><line stroke="#e1ed5e" stroke-width="0.3" x1="143.13028292997686" x2="145.6673583964461" y1="26.7553504044142" y2="22.446841604673864" /><path d="M 143.63769802327073 25.89364864446614 a86.0,86.0 0 0,1 29.32050498858742,28.57503671076993" fill="none" id="id98" stroke="none" /><text fill="#e1ed5e" style="font-size:6.75px; font-family:Arial;" text-anchor="middle"><textPath startOffset="20.669276256404974" xlink:href="#id98">February</textPath></text><path d="M 117.01052211995028 87.68569379921539 l 16.01388209039293 -11.592815678072531 a40.769617976854576,40.769617976854576 0 0,0 0.40553131590792446,0.5704305819025463 l -16.210528504830812 11.31620786946048" fill="#ff850c" stroke="none" /><path d="M 117.42321728460499 88.27688183743584 l 16.397591417928542 -11.033031307236115 a40.76382513927342,40.76382513927342 0 0,0 0.38565599196583944,0.5839323256076937 l -16.584571848815106 10.749919103289361" fill="#ff850c" stroke="none" /><line stroke="#e1ed5e" stroke-width="0.3" x1="172.87174338648825" x2="177.1583165268699" y1="56.24261187166439" y2="53.66864786411523" /><path d="M 173.72905801456457 55.72781907015455 a86.0,86.0 0 0,1 12.242430191666344,42.057860355516425" fill="none" id="id99" stroke="none" /><text fill="#e1ed5e" style="font-size:6.75px; font-family:Arial;" text-anchor="middle"><textPath startOffset="22.145653131862474" xlink:href="#id99">March</textPath></text><path d="M 118.00360718960297 89.18935116829356 l 16.960777511038156 -10.18445957265862 a40.78360913903364,40.78360913903364 0 0,0 0.35525687177719634,0.6033038348482398 l -17.133108092945122 9.891804569516824" fill="#ff850c" stroke="none" /><path d="M 118.36410011445183 89.81374322990088 l 10.54042112051138 -5.8465939158113605 a33.05334550297654,33.05334550297654 0 0,0 0.2709660542432504,0.4985470202648465 l -10.639232524369973 5.6647920620719106" fill="#ff0200" stroke="none" /><path d="M 119.58574465831526 92.42381321644754 l 16.608252279741528 -6.424428767698744 a38.80750765207683,38.80750765207683 0 0,0 0.23500591480859398,0.6233811094120696 l -16.716088878364562 6.138379378092518" fill="#ff6509" stroke="none" /><path d="M 119.83427380445688 93.10060997987247 l 18.599042779898127 -6.469712549330609 a40.6921703425358,40.6921703425358 0 0,0 0.22383518582969217,0.6617289539994361 l -18.707363387300184 6.149481920857011" fill="#ff840c" stroke="none" /><path d="M 120.05942366710727 93.78553927170692 l 18.87523860483609 -5.847597168968455 a40.760289093027524,40.760289093027524 0 0,0 0.2013241515449917,0.670142623361599 l -18.972839076384705 5.522716942016132" fill="#ff850c" stroke="none" /><path d="M 120.51834098615036 95.52812308129327 l 19.378594154501663 -4.22347440151203 a40.83349811367408,40.83349811367408 0 0,0 0.1433883631405346,0.6861652247992407 l -19.448240228466563 3.890192725427385" fill="#ff860c" stroke="none" /><path d="M 120.65975698304385 96.23510406497455 l 19.517274844509917 -3.55669763130214 a40.83870246252637,40.83870246252637 0 0,0 0.11976471164452505,0.690771030532015 l -19.57545437364668 3.2211335678495323" fill="#ff860c" stroke="none" /><path d="M 120.7213421655516 96.59031103205396 l 11.772531582761141 -1.9371655919696784 a32.93084701091334,32.93084701091334 0 0,0 0.08699782165659722,0.5585884230616669 l -11.804050896556003 1.7347889869765702" fill="#ff0000" stroke="none" /><path d="M 120.82617615685814 97.30363454192243 l 19.637148892959047 -2.5424220736107004 a40.80104862487403,40.80104862487403 0 0,0 0.08396839047547974,0.6953787281427477 l -19.677899369694188 2.2049496685445398" fill="#ff860c" stroke="none" /><line stroke="#e1ed5e" stroke-width="0.3" x1="184.99686870605535" x2="189.99668451229388" y1="99.2704041080226" y2="99.22748670261217" /><path d="M 185.99683186730306 99.26182062694052 a86.0,86.0 0 0,1 -10.086455211305974,41.156179273409016" fill="none" id="id100" stroke="none" /><text fill="#e1ed5e" style="font-size:6.75px; font-family:Arial;" text-anchor="middle"><textPath startOffset="21.40746469413373" xlink:href="#id100">April</textPath></text><path d="M 120.9064616781168 101.97986365728391 l 19.698504366760265 1.865468843989967 a40.78663812513815,40.78663812513815 0 0,0 -0.07199348066737792,0.6964716182360532 l -19.66357849361122 -2.2033449845089517" fill="#ff860c" stroke="none" /><path d="M 120.77682067341334 103.0534771498775 l 19.54997315738604 2.873172813835977 a40.759973999797694,40.759973999797694 0 0,0 -0.10768107323770416,0.6913897353759401 l -19.497770592010067 -3.2083507311433674" fill="#ff850c" stroke="none" /><path d="M 120.592083275326 104.11899336999214 l 24.89512093573522 4.979721415672177 a46.388278235882524,46.388278235882524 0 0,0 -0.1628941822871566,0.7795076306018118 l -24.8059690426237 -5.406345497559398" fill="#ffdd14" stroke="none" /><path d="M 120.43855184770803 104.8234425847677 l 27.011883498126696 6.374730956012382 a48.753901435256125,48.753901435256125 0 0,0 -0.19922347019714481,0.8128997435802736 l -26.898472501413256 -6.837486524200755" fill="#fdff18" stroke="none" /><path d="M 120.26092885502905 105.52220625578681 l 26.823146774148203 7.310767930529631 a48.801592231409295,48.801592231409295 0 0,0 -0.22723301321660366,0.8063698002483582 l -26.69369526885702 -7.770145654680998" fill="#fcff18" stroke="none" /><path d="M 120.05942366710727 106.21446072829308 l 26.54503106216379 8.223718477896114 a48.789714278756634,48.789714278756634 0 0,0 -0.25471781867133386,0.7978999390797473 l -26.3999485277152 -8.678187450667243" fill="#fdff18" stroke="none" /><path d="M 119.94978838288452 106.5578916946017 l 26.159147965164163 8.5990315228498 a48.5362373136621,48.5362373136621 0 0,0 -0.266982999607206,0.7892877985685894 l -26.00767954398459 -9.046820995892551" fill="#fffe18" stroke="none" /><path d="M 119.71291397450082 107.23885506374661 l 26.08324248049639 9.578127929392187 a48.786256907474495,48.786256907474495 0 0,0 -0.2954340442941216,0.7836739021660936 l -25.914977752387827 -10.02447011175244" fill="#fdff18" stroke="none" /><path d="M 119.4528033332814 107.91128576633889 l 25.78597708743189 10.486932397754764 a48.83688857377277,48.83688857377277 0 0,0 -0.3224959180206523,0.7738728027328713 l -25.60215532487475 -10.928037709928914" fill="#fcff18" stroke="none" /><path d="M 119.16976305983485 108.57439118712176 l 35.974253958373986 16.090826221543267 a60.4089030087554,60.4089030087554 0 0,0 -0.431536852970355,0.9429859037425834 l -35.69273264054857 -16.70600110750054" fill="#5fff29" stroke="none" /><path d="M 118.8641267826498 109.22738970284198 l 35.59019528314817 17.408947960416846 a60.61986205656355,60.61986205656355 0 0,0 -0.46527212511284416,0.9308559236661821 l -35.28610324482359 -18.017335740246775" fill="#5cff2a" stroke="none" /><path d="M 118.5362547648365 109.86951160357373 l 24.618762796511145 13.108104531813119 a48.890964236609335,48.890964236609335 0 0,0 -0.4008003264344022,0.7374274575577161 l -24.390117120461404 -13.528786822845438" fill="#fbff18" stroke="none" /><line stroke="#e1ed5e" stroke-width="0.3" x1="174.33088141563837" x2="178.70328620479359" y1="141.23008692659167" y2="143.65538615756765" /><path d="M 175.20536237346943 141.71514677278685 a86.0,86.0 0 0,1 -30.301960400862466,31.631185727798858" fill="none" id="id101" stroke="none" /><text fill="#e1ed5e" style="font-size:6.75px; font-family:Arial;" text-anchor="middle"><textPath startOffset="22.145653131862474" xlink:href="#id101">May</textPath></text><path d="M 118.36410011445183 110.18625677009912 l 34.81066842320119 19.308890971382795 a60.80723435023846,60.80723435023846 0 0,0 -0.5141588564727761,0.9084694336373041 l -34.47407620170704 -19.903617175119223" fill="#5aff2a" stroke="none" /><path d="M 118.00360718960297 110.81064883170644 l 37.250502060376014 22.367856193398932 a64.45021167311677,64.45021167311677 0 0,0 -0.577694977833848,0.9436213308285343 l -36.861039118086765 -23.004014640352022" fill="#30ff31" stroke="none" /><path d="M 117.62189284568427 111.42229804090321 l 16.70234205876321 10.82625633051841 a40.90417183361369,40.90417183361369 0 0,0 -0.38698377569172415,0.5859427594013153 l -16.514033844150763 -11.111378968258787" fill="#ff870c" stroke="none" /><path d="M 117.423217284605 111.72311816256416 l 32.88063800476592 22.123560665857095 a60.63064839409414,60.63064839409414 0 0,0 -0.5884356383932429,0.8585451820278482 l -32.496012629557356 -22.684740582954987" fill="#5cff2a" stroke="none" /><path d="M 117.01052211995028 112.31430620078461 l 32.05845909793015 23.207852109033023 a60.577129750000935,60.577129750000935 0 0,0 -0.6170155101396888,0.83710004076432 l -31.65534156820663 -23.754758459066224" fill="#5dff2a" stroke="none" /><path d="M 116.57777611688842 112.89097897827486 l 15.671379107266118 12.186159181299255 a40.851816005484764,40.851816005484764 0 0,0 -0.4352344099848232,0.5499044590294042 l -15.459878266639732 -12.453383584243342" fill="#ff870c" stroke="none" /><path d="M 115.89218393027572 113.72728997021213 l 29.944353740063303 25.865219567297274 a60.56859745018189,60.56859745018189 0 0,0 -0.6864121935566437,0.7810110733190224 l -29.495930482548072 -26.37544291842759" fill="#5dff2a" stroke="none" /><path d="M 115.41159269507618 114.26474011684316 l 28.954265406154303 26.79963579785299 a60.45338976700972,60.45338976700972 0 0,0 -0.7114620291325967,0.7555480199836022 l -28.489947543285446 -27.292725277781088" fill="#5eff29" stroke="none" /><path d="M 114.91283532996326 114.78537596483092 l 19.706037972238708 19.537611309324475 a48.74970609281398,48.74970609281398 0 0,0 -0.5943008881452368,0.5892214238968472 l -19.367745163963505 -19.873012743449983" fill="#fdff18" stroke="none" /><path d="M 114.13192950727249 115.5334660781643 l 34.79297182094865 38.24357086278319 a72.70223980128952,72.70223980128952 0 0,0 -0.9303635458514232,0.8319368196066578 l -34.13134324827385 -38.83520321227323" fill="#3cffa4" stroke="none" /><path d="M 113.59037401385872 116.0094264158162 l 17.373669053680178 20.466138459765798 a47.84599038666872,47.84599038666872 0 0,0 -0.6307141974511018,0.5261642156414726 l -17.01978052206718 -20.761364859319144" fill="#fff316" stroke="none" /><path d="M 113.03279911837588 116.46651593811092 l 17.344781619406497 21.91456496680833 a48.94798037621618,48.94798037621618 0 0,0 -0.6633384973933812,0.5158160277401282 l -16.966033177377888 -22.209082046169254" fill="#faff18" stroke="none" /><path d="M 112.45986205192187 116.90419585922612 l 31.290495576191272 42.45156676277961 a73.73737416688833,73.73737416688833 0 0,0 -1.0253673096138767,0.7422868580883328 l -30.55714725620343 -42.982454392241024" fill="#3effb1" stroke="none" /><path d="M 111.8722381534696 117.32195027204791 l 23.574057042493838 34.39525374422863 a62.69855687637915,62.69855687637915 0 0,0 -0.8930176710802934,0.600862143215211 l -22.98014308331654 -34.79486556150096" fill="#43ff2d" stroke="none" /><path d="M 111.27062007382361 117.71928675628689 l 26.36847368675194 41.455620322640605 a70.13109871460094,70.13109871460094 0 0,0 -1.0213621749673563,0.6374055367994794 l -25.652947382994867 -41.90216165628163" fill="#38ff82" stroke="none" /><line stroke="#e1ed5e" stroke-width="0.3" x1="143.1302829299769" x2="145.66735839644613" y1="173.24464959558577" y2="177.55315839532614" /><path d="M 143.63769802327073 174.10635135553383 a86.0,86.0 0 0,1 -40.68552437913181,11.842963189579606" fill="none" id="id102" stroke="none" /><text fill="#e1ed5e" style="font-size:6.75px; font-family:Arial;" text-anchor="middle"><textPath startOffset="21.407464694133747" xlink:href="#id102">June</textPath></text><path d="M 110.34350942703117 118.27599006163325 l 27.143279015753635 47.95957320207482 a76.10787836101318,76.10787836101318 0 0,0 -1.1425452847818296,0.6337506095980621 l -26.31598954281571 -48.418456727106026" fill="#41ffd0" stroke="none" /><path d="M 109.71004243097381 118.62028667847754 l 14.283898365538656 27.391258518516356 a51.89192120515059,51.89192120515059 0 0,0 -0.7933849196170272,0.40510799304781764 l -13.811586224208046 -27.632424463237008" fill="#d0ff1d" stroke="none" /><path d="M 109.3889696526874 118.78422872680471 l 18.700360648884654 37.41324817274741 a62.826482367442054,62.826482367442054 0 0,0 -0.9688434471244488,0.47390987935282897 l -18.055356952498133 -37.728751802197465" fill="#41ff2d" stroke="none" /><path d="M 108.73861861582097 119.09545874513695 l 18.872736228755972 41.24033464643934 a66.35355966746715,66.35355966746715 0 0,0 -1.0398127218753754,0.4650950046109813 l -18.162010104024972 -41.55823340196017" fill="#32ff4d" stroke="none" /><path d="M 108.07796709384702 119.3841803445677 l 24.233901281541076 58.15254103370309 a84.0,84.0 0 0,0 -1.3357821552382365,0.5432509736828348 l -23.232064665112397 -58.55997926396521" fill="#4dd2ff" stroke="none" /><path d="M 107.407793817531 119.65005319985036 l 13.356528032160886 35.429777456296755 a58.86378179311482,58.86378179311482 0 0,0 -0.9485782063549685,0.34833105655077296 l -12.746360674151791 -35.65383936185625" fill="#72ff27" stroke="none" /><path d="M 107.06938296918513 119.77432235084164 l 15.834423606847519 44.291700988109255 a68.03704654186069,68.03704654186069 0 0,0 -1.1031534111717989,0.3837340207534163 l -15.071764423630698 -44.55699344143127" fill="#35ff65" stroke="none" /><line stroke="#e1ed5e" stroke-width="0.3" x1="101.45913802915013" x2="101.54496967792366" y1="184.9874750549273" y2="189.98673829345242" /><path d="M 101.47630435890484 185.9873277026323 a86.0,86.0 0 0,1 -42.54439059252881,-10.42667462771756" fill="none" id="id103" stroke="none" /><text fill="#e1ed5e" style="font-size:6.75px; font-family:Arial;" text-anchor="middle"><textPath startOffset="22.145653131862474" xlink:href="#id103">July</textPath></text><line stroke="#e1ed5e" stroke-width="0.3" x1="58.13341422392154" x2="55.67067388415222" y1="173.97424548756322" y2="178.32567169271397" /><path d="M 57.64086615596768 174.84453072859336 a86.0,86.0 0 0,1 -31.369924170532247,-30.572349798747897" fill="none" id="id104" stroke="none" /><text fill="#e1ed5e" style="font-size:6.75px; font-family:Arial;" text-anchor="middle"><textPath startOffset="22.145653131862474" xlink:href="#id104">August</textPath></text><line stroke="#e1ed5e" stroke-width="0.3" x1="26.387840678322732" x2="22.057713659400534" y1="142.50000000000003" y2="145.00000000000006" /><path d="M 25.521815274538284 143.00000000000003 a86.0,86.0 0 0,1 -11.493303480769212,-40.785679425670985" fill="none" id="id105" stroke="none" /><text fill="#e1ed5e" style="font-size:6.75px; font-family:Arial;" text-anchor="middle"><textPath startOffset="21.40746469413373" xlink:href="#id105">September</textPath></text><line stroke="#e1ed5e" stroke-width="0.3" x1="15.003131293944662" x2="10.003315487706104" y1="100.72959589197737" y2="100.7725132973878" /><path d="M 14.003168132696942 100.73817937305945 a86.0,86.0 0 0,1 10.791469493833604,-42.45332614584628" fill="none" id="id106" stroke="none" /><text fill="#e1ed5e" style="font-size:6.75px; font-family:Arial;" text-anchor="middle"><textPath startOffset="22.145653131862435" xlink:href="#id106">October</textPath></text><line stroke="#e1ed5e" stroke-width="0.3" x1="26.387840678322718" x2="22.05771365940052" y1="57.49999999999999" y2="54.99999999999999" /><path d="M 25.521815274538284 56.99999999999999 a86.0,86.0 0 0,1 29.574782752854787,-30.34633250058573" fill="none" id="id107" stroke="none" /><text fill="#e1ed5e" style="font-size:6.75px; font-family:Arial;" text-anchor="middle"><textPath startOffset="21.40746469413373" xlink:href="#id107">November</textPath></text><line stroke="#e1ed5e" stroke-width="0.3" x1="56.869717070023135" x2="54.33264160355391" y1="26.7553504044142" y2="22.446841604673864" /><path d="M 56.362301976729285 25.89364864446614 a86.0,86.0 0 0,1 42.16139366436587,-11.88097634709845" fill="none" id="id108" stroke="none" /><text fill="#e1ed5e" style="font-size:6.75px; font-family:Arial;" text-anchor="middle"><textPath startOffset="22.145653131862474" xlink:href="#id108">December</textPath></text></svg>