<?xml version="1.0" encoding="utf-8" ?>
<svg baseProfile="full" height="200mm" version="1.1" viewBox="0,0,200,200" width="200mm" xmlns="http://www.w3.org/2000/svg" xmlns:ev="http://www.w3.org/2001/xml-events" xmlns:xlink="http://www.w3.org/1999/xlink"><defs /><rect fill="#1a1a1a" height="200" width="200" x="0" y="0" /><text alignment-baseline="middle" fill="#e1ed5e" style="dominant-baseline: central; font-size:9.0px; font-family:Arial;" text-anchor="middle" x="100.0" y="100.0">2018</text><line stroke="#e1ed5e" stroke-width="0.3" x1="100.0" x2="100.0" y1="15.0" y2="10.0" /><path d="M 100.0 14.0 a86.0,86.0 0 0,1 42.46469731375804,11.215312516191453" fill="none" id="id25" stroke="none" /><text fill="#e1ed5e" style="font-size:6.75px; font-family:Arial;" text-anchor="middle"><textPath startOffset="22.20632615414155" xlink:href="#id25">January</textPath></text><line stroke="#e1ed5e" stroke-width="0.3" x1="143.23703022742887" x2="145.7803849466894" y1="26.81831364943548" y2="22.513508569990506" /><path d="M 143.74570117128098 25.957352633546492 a86.0,86.0 0 0,1 28.547481713284135,27.462654790039103" fill="none" id="id26" stroke="none" /><text fill="#e1ed5e" style="font-size:6.75px; font-family:Arial;" text-anchor="middle"><textPath startOffset="19.985693538727396" xlink:href="#id26">February</textPath></text><line stroke="#e1ed5e" stroke-width="0.3" x1="172.23445277983987" x2="176.4835382374775" y1="55.19839476539836" y2="52.563006222186495" /><path d="M 173.08426987136738 54.67131705675599 a86.0,86.0 0 0,1 12.851231095245387,41.99856678651699" fill="none" id="id27" stroke="none" /><text fill="#e1ed5e" style="font-size:6.75px; font-family:Arial;" text-anchor="middle"><textPath startOffset="22.20632615414155" xlink:href="#id27">March</textPath></text><path d="M 119.97218684219823 93.5106431181261 l 45.2273192858672 -14.69524684379264 a68.55481773265221,68.55481773265221 0 0,0 0.35499811855695546,1.1254410478094772 l -45.473572888192365 13.914555629556743" fill="#ff0000" stroke="none" /><path d="M 120.45610955862082 95.25157060432595 l 46.64861705658165 -10.828435576385749 a68.88891824131693,68.88891824131693 0 0,0 0.25818783518806493,1.1574054396011582 l -46.82809927877175 10.023851967234627" fill="#ff1302" stroke="none" /><path d="M 120.53481517161879 95.60439243477599 l 60.11630483576204 -12.868276734947488 a82.47814777002847,82.47814777002847 0 0,0 0.28522005536601885,1.3908342838056424 l -60.32890418704305 11.831566794978432" fill="#45fff2" stroke="none" /><path d="M 120.6074358757038 95.95851677861258 l 60.196794769748685 -11.805657798022052 a82.34352171660217,82.34352171660217 0 0,0 0.2608104636996464,1.3932599259450618 l -60.391090957358195 10.767719794614427" fill="#45ffed" stroke="none" /><path d="M 120.94382443527127 98.46500227214037 l 60.69786124078496 -4.448618225314943 a81.86066515673477,81.86066515673477 0 0,0 0.0909020157828805,1.4062139499766406 l -60.76544384757226 3.403145211085268" fill="#42ffda" stroke="none" /><line stroke="#e1ed5e" stroke-width="0.3" x1="184.98032266829074" x2="189.97916517819016" y1="98.17113171792111" y2="98.06355123074" /><path d="M 185.9800911702706 98.14961562048488 a86.0,86.0 0 0,1 -9.607161424134198,41.387399972396054" fill="none" id="id28" stroke="none" /><text fill="#e1ed5e" style="font-size:6.75px; font-family:Arial;" text-anchor="middle"><textPath startOffset="21.466115282336823" xlink:href="#id28">April</textPath></text><path d="M 120.89721153311464 102.0752229133903 l 62.383523265358136 6.19507137079703 a83.69037313885401,83.69037313885401 0 0,0 -0.15469846056040482,1.4323156156637327 l -62.26764250329668 -7.2679833083455545" fill="#4bddff" stroke="none" /><path d="M 120.8583938346157 102.4346265915055 l 62.38115273730742 7.281232412582523 a83.80465398584184,83.80465398584184 0 0,0 -0.17957537845014268,1.431392452038551 l -62.24657584961043 -8.35394261890847" fill="#4cd9ff" stroke="none" /><path d="M 120.76222939487914 103.15116336523771 l 62.28668818463745 9.453490095713112 a84.0,84.0 0 0,0 -0.2292729825548463,1.4276830812271801 l -62.114733447721314 -10.524252406633499" fill="#4dd2ff" stroke="none" /><path d="M 120.70491114924044 103.5080841355445 l 62.07667072194251 10.517803345176644 a83.96139479973648,83.96139479973648 0 0,0 -0.2536975812479629,1.4228707653100803 l -61.886426698355365 -11.584792861219942" fill="#4dd3ff" stroke="none" /><path d="M 120.41448212921028 104.9243191809786 l 61.1352557054531 14.746860116213 a83.88870624729284,83.88870624729284 0 0,0 -0.35068948890178836,1.400830184280731 l -60.872354902256255 -15.797018139891128" fill="#4cd6ff" stroke="none" /><path d="M 120.32669344350535 105.2749913415812 l 60.78845089203213 15.775244164272008 a83.80202297932289,83.80202297932289 0 0,0 -0.3743632848638509,1.3931450495386988 l -60.5078995308265 -16.819280146986255" fill="#4cd9ff" stroke="none" /><path d="M 120.23288151984713 105.62410040840565 l 60.64954815338035 16.85865397889318 a83.94904213083193,83.94904213083193 0 0,0 -0.39898726338171814,1.3889270060432595 l -60.350368253112535 -17.900138460441024" fill="#4dd4ff" stroke="none" /><line stroke="#e1ed5e" stroke-width="0.3" x1="174.80103733775053" x2="179.2010983576182" y1="140.37084112569926" y2="142.7455964860345" /><path d="M 175.68104954172406 140.8457921977663 a86.0,86.0 0 0,1 -30.038265399797805,32.042727171017184" fill="none" id="id29" stroke="none" /><text fill="#e1ed5e" style="font-size:6.75px; font-family:Arial;" text-anchor="middle"><textPath startOffset="22.206326154141568" xlink:href="#id29">May</textPath></text><line stroke="#e1ed5e" stroke-width="0.3" x1="143.8653032363475" x2="146.44561519142675" y1="172.8068346515853" y2="177.08958963109032" /><path d="M 144.38136562736335 173.6633856474863 a86.0,86.0 0 0,1 -40.68145358897372,12.25698825130547" fill="none" id="id30" stroke="none" /><text fill="#e1ed5e" style="font-size:6.75px; font-family:Arial;" text-anchor="middle"><textPath startOffset="21.466115282336833" xlink:href="#id30">June</textPath></text><line stroke="#e1ed5e" stroke-width="0.3" x1="102.19456741930631" x2="102.32365962044197" y1="184.97166512339345" y2="189.96999836594603" /><path d="M 102.22038585953345 185.97133177190398 a86.0,86.0 0 0,1 -42.740103519485714,-10.115201625700543" fill="none" id="id31" stroke="none" /><text fill="#e1ed5e" style="font-size:6.75px; font-family:Arial;" text-anchor="middle"><textPath startOffset="22.20632615414155" xlink:href="#id31">July</textPath></text><line stroke="#e1ed5e" stroke-width="0.3" x1="58.666819895761336" x2="56.23545636021788" y1="174.27360380694188" y2="178.64263932499728" /><path d="M 58.180547188652646 175.14741091055294 a86.0,86.0 0 0,1 -31.652253787137756,-30.449443065178592" fill="none" id="id32" stroke="none" /><text fill="#e1ed5e" style="font-size:6.75px; font-family:Arial;" text-anchor="middle"><textPath startOffset="22.20632615414155" xlink:href="#id32">August</textPath></text><line stroke="#e1ed5e" stroke-width="0.3" x1="26.63291911575756" x2="22.317208475507996" y1="142.92168965132927" y2="145.44649492493687" /><path d="M 25.769776987707644 143.4266507060508 a86.0,86.0 0 0,1 -11.730757126820373,-40.83630448921669" fill="none" id="id33" stroke="none" /><text fill="#e1ed5e" style="font-size:6.75px; font-family:Arial;" text-anchor="middle"><textPath startOffset="21.46611528233685" xlink:href="#id33">September</textPath></text><line stroke="#e1ed5e" stroke-width="0.3" x1="15.007084014347285" x2="10.007500721073583" y1="101.09737516637583" y2="101.16192664675087" /><path d="M 14.007167355692545 101.11028546245083 a86.0,86.0 0 0,1 10.666146001902534,-42.60595125391555" fill="none" id="id34" stroke="none" /><text fill="#e1ed5e" style="font-size:6.75px; font-family:Arial;" text-anchor="middle"><textPath startOffset="22.20632615414155" xlink:href="#id34">October</textPath></text><line stroke="#e1ed5e" stroke-width="0.3" x1="26.266209847984243" x2="21.928928074336255" y1="57.711370442889674" y2="55.22380399835377" /><path d="M 25.398753493254645 57.213857153982495 a86.0,86.0 0 0,1 29.58750427330803,-30.492523968695096" fill="none" id="id35" stroke="none" /><text fill="#e1ed5e" style="font-size:6.75px; font-family:Arial;" text-anchor="middle"><textPath startOffset="21.46611528233685" xlink:href="#id35">November</textPath></text><line stroke="#e1ed5e" stroke-width="0.3" x1="56.76296977257108" x2="54.21961505331056" y1="26.818313649435495" y2="22.513508569990535" /><path d="M 56.25429882871898 25.957352633546506 a86.0,86.0 0 0,1 42.26535254187918,-11.944610805530505" fill="none" id="id36" stroke="none" /><text fill="#e1ed5e" style="font-size:6.75px; font-family:Arial;" text-anchor="middle"><textPath startOffset="22.20632615414155" xlink:href="#id36">December</textPath></text></svg>