<?xml version="1.0" encoding="utf-8" ?>
<svg baseProfile="full" height="200mm" version="1.1" viewBox="0,0,200,200" width="200mm" xmlns="http://www.w3.org/2000/svg" xmlns:ev="http://www.w3.org/2001/xml-events" xmlns:xlink="http://www.w3.org/1999/xlink"><defs /><rect fill="#1a1a1a" height="200" width="200" x="0" y="0" /><text alignment-baseline="middle" fill="#e1ed5e" style="dominant-baseline: central; font-size:9.0px; font-family:Arial;" text-anchor="middle" x="100.0" y="100.0">2024</text><line stroke="#e1ed5e" stroke-width="0.3" x1="100.0" x2="100.0" y1="15.0" y2="10.0" /><path d="M 100.0 14.0 a86.0,86.0 0 0,1 42.35913384403234,11.155469271406648" fill="none" id="id1" stroke="none" /><text fill="#e1ed5e" style="font-size:6.75px; font-family:Arial;" text-anchor="middle"><textPath startOffset="22.145653131862478" xlink:href="#id1">January</textPath></text><line stroke="#e1ed5e" stroke-width="0.3" x1="143.13028292997686" x2="145.6673583964461" y1="26.7553504044142" y2="22.446841604673864" /><path d="M 143.63769802327073 25.89364864446614 a86.0,86.0 0 0,1 29.32050498858742,28.57503671076992" fill="none" id="id2" stroke="none" /><text fill="#e1ed5e" style="font-size:6.75px; font-family:Arial;" text-anchor="middle"><textPath startOffset="20.669276256404974" xlink:href="#id2">February</textPath></text><path d="M 117.01052211995028 87.68569379921539 l 17.86438611377876 -12.932437884202892 a43.054120722688936,43.054120722688936 0 0,0 0.4282550364303837,0.6023943405868704 l -18.083756248739103 12.623866316906517" fill="#ff970e" stroke="none" /><path d="M 117.42321728460499 88.27688183743584 l 18.377436046524533 -12.365159131013925 a43.15010871258641,43.15010871258641 0 0,0 0.40823200281451644,0.6181152834572946 l -18.586992488259774 12.047863969217575" fill="#ff990e" stroke="none" /><line stroke="#e1ed5e" stroke-width="0.3" x1="172.87174338648825" x2="177.1583165268699" y1="56.24261187166439" y2="53.66864786411523" /><path d="M 173.72905801456457 55.72781907015455 a86.0,86.0 0 0,1 12.242430191666344,42.057860355516425" fill="none" id="id3" stroke="none" /><text fill="#e1ed5e" style="font-size:6.75px; font-family:Arial;" text-anchor="middle"><textPath startOffset="22.145653131862474" xlink:href="#id3">March</textPath></text><path d="M 118.00360718960297 89.18935116829356 l 18.98218208245449 -11.398254938123376 a43.14144196401649,43.14144196401649 0 0,0 0.37579542467283256,0.6381827878215742 l -19.175051217257092 11.070720982008245" fill="#ff990e" stroke="none" /><path d="M 118.36410011445183 89.81374322990088 l 11.825685318851095 -6.559508300949189 a34.523090712211896,34.523090712211896 0 0,0 0.2830147910361323,0.5207153388862368 l -11.936545459502566 6.355538128588351" fill="#ff0300" stroke="none" /><path d="M 119.58574465831526 92.42381321644754 l 18.580395910127162 -7.187296290402372 a40.922056624332285,40.922056624332285 0 0,0 0.24781095037252748,0.6573479875751439 l -18.70103754431413 6.86728002263307" fill="#ff740a" stroke="none" /><path d="M 119.83427380445688 93.10060997987247 l 20.800395610017123 -7.235457335181536 a43.02290399521489,43.02290399521489 0 0,0 0.23665583893999345,0.6996309368392756 l -20.921536870529483 6.877324723868099" fill="#ff970d" stroke="none" /><path d="M 120.05942366710727 93.78553927170692 l 21.116600190131187 -6.541976717497616 a43.106747000907426,43.106747000907426 0 0,0 0.21291383007651044,0.7087208938543663 l -21.225790340211326 6.178518220052526" fill="#ff980e" stroke="none" /><path d="M 120.51834098615036 95.52812308129327 l 21.725272625633984 -4.734922052068476 a43.235263827921756,43.235263827921756 0 0,0 0.15182225370397143,0.726524444248039 l -21.803352590162323 4.361281156535033" fill="#ff9a0e" stroke="none" /><path d="M 120.65975698304385 96.23510406497455 l 21.95323077737127 -4.000609948231031 a43.31477585642317,43.31477585642317 0 0,0 0.12702611316194207,0.7326528648421148 l -22.018671708025447 3.6231640504683242" fill="#ff9c0e" stroke="none" /><path d="M 120.7213421655516 96.59031103205396 l 13.167894182922597 -2.1667719768285023 a34.34497426045536,34.34497426045536 0 0,0 0.09073371069141677,0.5825755106111742 l -13.20314938575228 1.9404082842858872" fill="#ff0000" stroke="none" /><path d="M 120.82617615685814 97.30363454192243 l 22.000700224109508 -2.8484311133742826 a43.184327128826126,43.184327128826126 0 0,0 0.08887316784705115,0.735997320819746 l -22.046355478216224 2.4703401156311235" fill="#ff990e" stroke="none" /><line stroke="#e1ed5e" stroke-width="0.3" x1="184.99686870605535" x2="189.99668451229388" y1="99.2704041080226" y2="99.22748670261217" /><path d="M 185.99683186730306 99.26182062694052 a86.0,86.0 0 0,1 -10.086455211305974,41.156179273409016" fill="none" id="id4" stroke="none" /><text fill="#e1ed5e" style="font-size:6.75px; font-family:Arial;" text-anchor="middle"><textPath startOffset="21.40746469413373" xlink:href="#id4">April</textPath></text><path d="M 120.9064616781168 101.97986365728391 l 22.101533227037663 2.093038175477923 a43.20041845979165,43.20041845979165 0 0,0 -0.0762541026712069,0.7376892711983937 l -22.06234673188479 -2.4721319689592476" fill="#ff9a0e" stroke="none" /><path d="M 120.77682067341334 103.0534771498775 l 21.839951914702006 3.209720831411969 a43.074551126854104,43.074551126854104 0 0,0 -0.11379580111103679,0.7306506747325421 l -21.7816346214527 -3.5841596880759616" fill="#ff980e" stroke="none" /><path d="M 120.592083275326 104.11899336999214 l 27.81320755031142 5.563420464369418 a49.36417038272166,49.36417038272166 0 0,0 -0.17334413939419063,0.829514458286025 l -27.713605700092867 -6.040051373940852" fill="#fffb17" stroke="none" /><path d="M 120.43855184770803 104.8234425847677 l 30.25265188445326 7.139543471030631 a52.08369390881093,52.08369390881093 0 0,0 -0.2128300286896762,0.8684191454792738 l -30.12563432924729 -7.657818441118004" fill="#daff1c" stroke="none" /><path d="M 120.26092885502905 105.52220625578681 l 30.045052807660067 8.188912747143023 a52.14102583723606,52.14102583723606 0 0,0 -0.24278229195920198,0.8615487050042578 l -29.900052023626287 -8.70346937605029" fill="#d9ff1c" stroke="none" /><path d="M 120.05942366710727 106.21446072829308 l 29.69483568213192 9.199536000743757 a52.08721166038851,52.08721166038851 0 0,0 -0.27193315498842763,0.8518267348975582 l -29.532537811366236 -9.7079317693327" fill="#daff1c" stroke="none" /><path d="M 119.94978838288452 106.5578916946017 l 29.204098919280813 9.599967381878892 a51.741482843549974,51.741482843549974 0 0,0 -0.28461407513778025,0.8414109405379148 l -29.03499942257067 -10.09987999689097" fill="#dfff1b" stroke="none" /><path d="M 119.71291397450082 107.23885506374661 l 29.161286050296688 10.708428163568792 a52.06527060628221,52.06527060628221 0 0,0 -0.3152907076198578,0.8363460607511307 l -28.97316465886239 -11.20744250451408" fill="#daff1b" stroke="none" /><path d="M 119.4528033332814 107.91128576633889 l 28.869255944892263 11.740875067135836 a52.16539886081661,52.16539886081661 0 0,0 -0.34447583959243444,0.8266166129956556 l -28.66345426076334 -12.234724189572768" fill="#d9ff1c" stroke="none" /><path d="M 119.16976305983485 108.57439118712176 l 39.95954959128952 17.873398267232403 a64.77469553472454,64.77469553472454 0 0,0 -0.4627243149758339,1.011136136665319 l -39.64684081145863 -18.556723386112413" fill="#31ff2f" stroke="none" /><path d="M 118.8641267826498 109.22738970284198 l 39.80214388616689 19.469223085589388 a65.30870462439157,65.30870462439157 0 0,0 -0.5012601275899414,1.0028560360275114 l -39.462063845365215 -20.149610977780643" fill="#30ff36" stroke="none" /><path d="M 118.5362547648365 109.86951160357373 l 27.557455913488248 14.67279309405535 a52.22025358008494,52.22025358008494 0 0,0 -0.4280933094322794,0.787643472201066 l -27.30151725444063 -15.14369139973102" fill="#d8ff1c" stroke="none" /><line stroke="#e1ed5e" stroke-width="0.3" x1="174.33088141563837" x2="178.70328620479359" y1="141.23008692659167" y2="143.65538615756765" /><path d="M 175.20536237346943 141.71514677278685 a86.0,86.0 0 0,1 -30.301960400862466,31.63118572779886" fill="none" id="id5" stroke="none" /><text fill="#e1ed5e" style="font-size:6.75px; font-family:Arial;" text-anchor="middle"><textPath startOffset="22.145653131862474" xlink:href="#id5">May</textPath></text><path d="M 118.36410011445183 110.18625677009912 l 38.87479424478307 21.563193055700236 a65.45470641373777,65.45470641373777 0 0,0 -0.5534558076857556,0.9779033810695158 l -38.498905072075935 -22.227353206868873" fill="#30ff38" stroke="none" /><path d="M 118.00360718960297 110.81064883170644 l 41.793712414438275 25.095923473977212 a69.7495617661584,69.7495617661584 0 0,0 -0.6251953328374987,1.0212095909367331 l -41.35674911714537 -25.809670181038502" fill="#37ff77" stroke="none" /><path d="M 117.62189284568427 111.42229804090321 l 18.837956047937418 12.210535516544907 a43.449181848451104,43.449181848451104 0 0,0 -0.41106145629411434,0.6223994366533011 l -18.625570152722577 -12.53211483153727" fill="#ff9e0e" stroke="none" /><path d="M 117.423217284605 111.72311816256415 l 36.97062332268828 24.87548531800054 a65.56025985869206,65.56025985869206 0 0,0 -0.6362787531550484,0.928349716274137 l -36.538154832717915 -25.50646976934472" fill="#30ff3a" stroke="none" /><path d="M 117.01052211995028 112.31430620078461 l 35.92387537178991 26.006115398904583 a65.34910213148667,65.34910213148667 0 0,0 -0.6656209984730954,0.9030427206429067 l -35.47215235373299 -26.61896442881637" fill="#30ff36" stroke="none" /><path d="M 116.57777611688842 112.89097897827484 l 17.539793888372646 13.63904981609346 a43.21864193717684,43.21864193717684 0 0,0 -0.4604505249251842,0.5817641965110708 l -17.303076932805897 -13.938133956519211" fill="#ff9a0e" stroke="none" /><path d="M 115.89218393027572 113.72728997021213 l 33.87784134156817 29.262872472460618 a65.76632483579547,65.76632483579547 0 0,0 -0.7453170321440484,0.8480339666194112 l -33.37051324546553 -29.840118716891322" fill="#31ff3d" stroke="none" /><path d="M 115.41159269507618 114.26474011684316 l 32.714554065490844 30.28010284308482 a65.57719905839438,65.57719905839438 0 0,0 -0.7717629612951523,0.8195855202759733 l -32.189935270459436 -30.83722982330529" fill="#30ff3a" stroke="none" /><path d="M 114.91283532996326 114.78537596483092 l 22.41988991488764 22.228268075602212 a52.57130604578336,52.57130604578336 0 0,0 -0.6408894817638615,0.6354118268003155 l -22.03500851299382 -22.609859912631187" fill="#d3ff1c" stroke="none" /><path d="M 114.13192950727249 115.5334660781643 l 39.537997910325366 43.45918574123324 a79.75333270588064,79.75333270588064 0 0,0 -1.020595701212431,0.912622969329552 l -38.78613718228956 -44.131504240446176" fill="#46fffa" stroke="none" /><path d="M 113.59037401385872 116.0094264158162 l 19.82254947559339 23.35091343915733 a51.63002817751506,51.63002817751506 0 0,0 -0.6805960441657489,0.5677774262801872 l -19.418779097265748 -23.68775304934939" fill="#e1ff1b" stroke="none" /><path d="M 113.03279911837588 116.46651593811092 l 19.766445382170488 24.974258021547 a52.850053795451174,52.850053795451174 0 0,0 -0.7162190350323089,0.5569362536532311 l -19.33481640250295 -25.309895326821024" fill="#cfff1d" stroke="none" /><path d="M 112.45986205192187 116.90419585922612 l 35.55094803541253 48.23168876729965 a80.91799151809298,80.91799151809298 0 0,0 -1.1252185774133976,0.8145714756649881 l -34.71774844762517 -48.83486101433772" fill="#48f6ff" stroke="none" /><path d="M 111.8722381534696 117.32195027204791 l 26.950150102817467 39.32107441500429 a68.67029980726676,68.67029980726676 0 0,0 -0.978073408087863,0.6580914389908402 l -26.271180406632602 -39.77791552805225" fill="#35ff67" stroke="none" /><path d="M 111.27062007382361 117.71928675628689 l 30.144761360303445 47.392571770174406 a77.16727246769933,77.16727246769933 0 0,0 -1.1238342859085844,0.7013557128313623 l -29.326762945605143 -47.903063279847316" fill="#42ffda" stroke="none" /><line stroke="#e1ed5e" stroke-width="0.3" x1="143.1302829299769" x2="145.6673583964461" y1="173.24464959558577" y2="177.55315839532614" /><path d="M 143.63769802327073 174.10635135553383 a86.0,86.0 0 0,1 -40.685524379131806,11.842963189579606" fill="none" id="id6" stroke="none" /><text fill="#e1ed5e" style="font-size:6.75px; font-family:Arial;" text-anchor="middle"><textPath startOffset="21.407464694133747" xlink:href="#id6">June</textPath></text><path d="M 110.34350942703117 118.27599006163325 l 31.03052828109348 54.82797018489977 a84.0,84.0 0 0,0 -1.2610232473756222,0.6994683382674252 l -30.084760845561767 -55.352571438600336" fill="#4dd2ff" stroke="none" /><path d="M 109.71004243097381 118.62028667847754 l 16.32952717093844 31.314021479138713 a56.31602184310086,56.31602184310086 0 0,0 -0.8610257902477608,0.4396459035521548 l -15.789574158977096 -31.589725334363703" fill="#9eff22" stroke="none" /><path d="M 109.3889696526874 118.78422872680471 l 21.37848082558758 42.7712825277375 a68.81654579199086,68.81654579199086 0 0,0 -1.0612158588535099,0.5190938547700937 l -20.641104717472 -43.13197013260481" fill="#35ff69" stroke="none" /><path d="M 108.73861861582097 119.09545874513695 l 21.575542695049354 47.14645455419617 a72.84874366478692,72.84874366478692 0 0,0 -1.1415973885184492,0.5106219913517354 l -20.763031903675277 -47.50988029645775" fill="#3cffa2" stroke="none" /><line stroke="#e1ed5e" stroke-width="0.3" x1="101.45913802915013" x2="101.54496967792366" y1="184.9874750549273" y2="189.98673829345242" /><path d="M 101.47630435890484 185.9873277026323 a86.0,86.0 0 0,1 -42.54439059252881,-10.42667462771756" fill="none" id="id7" stroke="none" /><text fill="#e1ed5e" style="font-size:6.75px; font-family:Arial;" text-anchor="middle"><textPath startOffset="22.145653131862474" xlink:href="#id7">July</textPath></text><line stroke="#e1ed5e" stroke-width="0.3" x1="58.13341422392154" x2="55.670673884152215" y1="173.97424548756322" y2="178.32567169271397" /><path d="M 57.64086615596767 174.84453072859336 a86.0,86.0 0 0,1 -31.369924170532244,-30.572349798747886" fill="none" id="id8" stroke="none" /><text fill="#e1ed5e" style="font-size:6.75px; font-family:Arial;" text-anchor="middle"><textPath startOffset="22.145653131862474" xlink:href="#id8">August</textPath></text><line stroke="#e1ed5e" stroke-width="0.3" x1="26.387840678322732" x2="22.057713659400548" y1="142.50000000000003" y2="145.00000000000006" /><path d="M 25.521815274538298 143.00000000000003 a86.0,86.0 0 0,1 -11.493303480769221,-40.785679425670985" fill="none" id="id9" stroke="none" /><text fill="#e1ed5e" style="font-size:6.75px; font-family:Arial;" text-anchor="middle"><textPath startOffset="21.40746469413373" xlink:href="#id9">September</textPath></text><line stroke="#e1ed5e" stroke-width="0.3" x1="15.003131293944662" x2="10.003315487706104" y1="100.72959589197737" y2="100.7725132973878" /><path d="M 14.003168132696942 100.73817937305945 a86.0,86.0 0 0,1 10.791469493833604,-42.453326145846276" fill="none" id="id10" stroke="none" /><text fill="#e1ed5e" style="font-size:6.75px; font-family:Arial;" text-anchor="middle"><textPath startOffset="22.145653131862435" xlink:href="#id10">October</textPath></text><line stroke="#e1ed5e" stroke-width="0.3" x1="26.387840678322718" x2="22.05771365940052" y1="57.5" y2="55.0" /><path d="M 25.521815274538284 57.0 a86.0,86.0 0 0,1 29.574782752854787,-30.346332500585742" fill="none" id="id11" stroke="none" /><text fill="#e1ed5e" style="font-size:6.75px; font-family:Arial;" text-anchor="middle"><textPath startOffset="21.40746469413373" xlink:href="#id11">November</textPath></text><line stroke="#e1ed5e" stroke-width="0.3" x1="56.869717070023135" x2="54.33264160355391" y1="26.7553504044142" y2="22.446841604673864" /><path d="M 56.362301976729285 25.89364864446614 a86.0,86.0 0 0,1 42.16139366436587,-11.88097634709845" fill="none" id="id12" stroke="none" /><text fill="#e1ed5e" style="font-size:6.75px; font-family:Arial;" text-anchor="middle"><textPath startOffset="22.145653131862474" xlink:href="#id12">December</textPath></text></svg>